<?xml version="1.0" encoding="UTF-8" standalone="no"?>
<svg
   xmlns:dc="http://purl.org/dc/elements/1.1/"
   xmlns:cc="http://creativecommons.org/ns#"
   xmlns:rdf="http://www.w3.org/1999/02/22-rdf-syntax-ns#"
   xmlns:svg="http://www.w3.org/2000/svg"
   xmlns="http://www.w3.org/2000/svg"
   xmlns:xlink="http://www.w3.org/1999/xlink"
   version="1.1"
   id="svg2"
   xml:space="preserve"
   width="1066.6667"
   height="1066.6667"
   viewBox="0 0 1066.6667 1066.6667"><metadata
     id="metadata8"><rdf:RDF><cc:Work
         rdf:about=""><dc:format>image/svg+xml</dc:format><dc:type
           rdf:resource="http://purl.org/dc/dcmitype/StillImage" /><dc:title></dc:title></cc:Work></rdf:RDF></metadata><defs
     id="defs6"><linearGradient
       id="linearGradient3407"><stop
         id="stop3403"
         offset="0"
         style="stop-color:#000000;stop-opacity:1;" /><stop
         id="stop3405"
         offset="1"
         style="stop-color:#000000;stop-opacity:0;" /></linearGradient><linearGradient
       id="linearGradient3269"><stop
         id="stop3265"
         offset="0"
         style="stop-color:#da925b;stop-opacity:0.97647059" /><stop
         id="stop3267"
         offset="1"
         style="stop-color:#290000;stop-opacity:0;" /></linearGradient><clipPath
       clipPathUnits="userSpaceOnUse"
       id="clipPath20"><path
         d="M 0,800 H 800 V 0 H 0 Z"
         id="path18" /></clipPath><clipPath
       clipPathUnits="userSpaceOnUse"
       id="clipPath28"><path
         d="M 0,800 H 800 V 0 H 0 Z"
         id="path26" /></clipPath><clipPath
       clipPathUnits="userSpaceOnUse"
       id="clipPath32"><path
         d="M 800,0 H 0 v 800 h 800 z"
         id="path30" /></clipPath><radialGradient
       fx="0"
       fy="0"
       cx="0"
       cy="0"
       r="1"
       gradientUnits="userSpaceOnUse"
       gradientTransform="matrix(400,0,0,-400,400,400)"
       spreadMethod="pad"
       id="radialGradient44"><stop
         style="stop-opacity:1;stop-color:#e9e9e9"
         offset="0"
         id="stop34" /><stop
         style="stop-opacity:1;stop-color:#e9e9e9"
         offset="0.601278"
         id="stop36" /><stop
         style="stop-opacity:1;stop-color:#1d1d1b"
         offset="0.88185326"
         id="stop38" /><stop
         style="stop-opacity:1;stop-color:#1d1d1b"
         offset="0.910991"
         id="stop40" /><stop
         style="stop-opacity:1;stop-color:#1d1d1b"
         offset="1"
         id="stop42" /></radialGradient><clipPath
       clipPathUnits="userSpaceOnUse"
       id="clipPath66"><path
         d="M 0,800 H 800 V 0 H 0 Z"
         id="path64" /></clipPath><clipPath
       clipPathUnits="userSpaceOnUse"
       id="clipPath118"><path
         d="M 280.789,36.1367 H 519.211 V 13.0645 H 280.789 Z"
         id="path116" /></clipPath><linearGradient
       gradientUnits="userSpaceOnUse"
       y2="529.43945"
       x2="608.49609"
       y1="529.43945"
       x1="446.07031"
       id="linearGradient3273"
       xlink:href="#linearGradient3269" /><filter
       height="1.1240807"
       y="-0.062040363"
       width="1.0297554"
       x="-0.014877677"
       id="filter3399"
       style="color-interpolation-filters:sRGB"><feGaussianBlur
         id="feGaussianBlur3401"
         stdDeviation="1.0006836" /></filter><radialGradient
       gradientUnits="userSpaceOnUse"
       gradientTransform="matrix(1,0,0,0.26177261,0,390.8467)"
       r="83.114531"
       fy="529.43945"
       fx="527.2832"
       cy="529.43945"
       cx="527.2832"
       id="radialGradient3409"
       xlink:href="#linearGradient3407" /><linearGradient
       y2="529.43945"
       x2="608.49609"
       y1="529.43945"
       x1="446.07031"
       gradientUnits="userSpaceOnUse"
       id="linearGradient3431"
       xlink:href="#linearGradient3269" /><linearGradient
       y2="529.43945"
       x2="608.49609"
       y1="529.43945"
       x1="446.07031"
       gradientUnits="userSpaceOnUse"
       id="linearGradient3433"
       xlink:href="#linearGradient3269" /><linearGradient
       y2="529.43945"
       x2="608.49609"
       y1="529.43945"
       x1="446.07031"
       gradientUnits="userSpaceOnUse"
       id="linearGradient3435"
       xlink:href="#linearGradient3269" /></defs><g
     style="opacity:1"
     transform="matrix(0.27309306,0,0,0.27938717,-156.4008,380.67052)"
     id="g1657"><g
       style=""
       id="g68"
       transform="matrix(1.3333333,0,0,-1.3333333,1720.8648,417.90178)"><path
         d="M 0,0 C 4.723,2.593 8.56,3.607 11.554,3.655 7.956,7.472 4.376,11.352 1.302,15.611 c -3.334,4.62 -6.327,9.49 -9.248,14.378 -6.219,10.409 -12.026,21.065 -17.728,31.763 -5.798,10.878 -11.457,21.831 -17.038,32.822 24.631,5.619 50.072,7.011 75.224,4.902 24.315,-2.038 48.493,-7.207 71.293,-15.957 l 0.125,0.326 c 0.291,-0.11 0.585,-0.215 0.875,-0.326 l 8.957,23.34 c -22.783,8.744 -46.823,14.201 -71.068,16.808 -25.005,2.689 -50.452,2.382 -75.298,-1.643 -23.029,-3.73 -45.612,-10.65 -66.838,-20.315 -20.368,-9.274 -39.198,-21.252 -56.814,-35.01 -10.281,-8.029 -20.42,-16.433 -29.516,-25.804 l 17.43,-16.918 0.509,-0.494 c 7.25,7.469 15.286,14.205 23.408,20.698 8.498,6.792 17.242,13.29 26.436,19.114 6.593,4.177 13.389,8.031 20.357,11.545 12.509,-20.315 25.134,-40.574 38.317,-60.46 5.747,-8.669 11.467,-17.526 18.061,-25.585 v 10e-4 c 4.632,-5.77 9.983,-10.983 15.254,-16.162 C -21.127,-12.242 -7.049,-3.871 0,0 4.723,2.593 -7.049,-3.871 0,0"
         style="fill:#45737e;fill-opacity:1;fill-rule:nonzero;stroke:none"
         id="path70" /></g><g
       style=""
       id="g72"
       transform="matrix(1.3333333,0,0,-1.3333333,1817.5581,509.99738)"><path
         d="m 0,0 -17.562,-7.742 -10.843,-4.781 -7.557,-3.332 c 8.561,-7.61 17.146,-15.194 25.782,-22.717 -5.42,-11.613 -3.7,-26.812 6.396,-36.156 l 5.138,-4.757 9.598,-8.891 8.699,-8.052 14.082,-13.041 c 3.677,-3.404 9.979,-3.845 14.399,-1.751 1.898,0.9 3.499,2.23 3.95,4.348 0.412,1.938 0.227,3.938 0.32,5.903 0.071,1.48 0.322,2.485 1.801,3.002 1.799,0.629 3.693,0.902 5.463,1.634 2.045,0.848 4.347,2.288 5.067,4.502 0.678,2.083 0.214,4.314 0.402,6.455 0.433,4.959 5.953,3.853 9.328,5.441 1.954,0.921 3.18,2.412 3.588,4.519 0.377,1.944 0.282,3.945 0.337,5.914 0.035,1.288 -0.023,3.046 1.204,3.832 1.268,0.812 3.018,0.703 4.401,1.29 4.624,1.965 6.192,6.659 5.08,11.285 -0.629,2.616 -1.927,5.289 -3.924,7.136 l -9.102,8.427 c 4.406,0.426 3.766,5.759 2.54,8.697 -1.69,4.047 -4.639,7.556 -7.629,10.705 -6.466,6.806 -14.57,12.012 -23.682,14.475 -2.488,0.673 -5.038,1.126 -7.61,1.321 0.063,0.115 0.128,0.234 0.191,0.349 -5.368,0.179 -11.055,-0.627 -16.678,-2.849 0,0 -1.085,0.929 -3.025,2.604 v 0 C 17.339,0.2 12.718,4.209 6.994,9.234 6.085,5.284 3.428,1.511 0,0"
         style="fill:#45737e;fill-opacity:1;fill-rule:nonzero;stroke:none"
         id="path74" /></g><g
       style=""
       id="g76"
       transform="matrix(1.3333333,0,0,-1.3333333,1555.8668,543.25205)"><path
         d="M 0,0 C -0.801,6.525 -0.434,10.91 0.517,13.852 -8.216,10.433 -17.058,7.004 -26.292,5.209 -35.358,3.448 -44.573,2.407 -53.753,1.445 c -16.22,-1.7 -32.491,-2.915 -48.762,-3.992 4.344,23.195 12.057,45.739 22.921,66.693 6.498,12.53 14.106,24.478 22.673,35.694 l -19.868,15.174 c -13.989,-18.319 -25.639,-38.417 -34.476,-59.708 -9.291,-22.383 -15.516,-46.056 -18.434,-70.114 -3.113,-25.655 -2.375,-51.719 2.019,-77.18 4.091,-23.708 11.336,-46.854 21.599,-68.617 3.23,-6.85 6.752,-13.566 10.557,-20.114 l 21.616,12.56 c -11.994,20.642 -20.855,43.059 -26.277,66.307 -3.214,13.781 -5.242,27.841 -6.036,41.971 22.966,3.384 45.945,6.859 68.752,11.205 7.576,1.443 15.204,2.9 22.625,5.03 9.47,2.718 18.633,6.726 27.699,10.534 l 0.728,0.306 C 4.207,-26.346 2.209,-17.999 0,0 -0.801,6.525 2.209,-17.999 0,0"
         style="fill:#b3b31c;fill-opacity:1;fill-rule:nonzero;stroke:none"
         id="path78" /></g><g
       style=""
       id="g80"
       transform="matrix(1.3333333,0,0,-1.3333333,1677.2476,509.70058)"><path
         d="m 0,0 0.758,-11.825 0.678,-10.586 c 12.762,5.98 21.289,10.057 21.289,10.057 8.503,-9.587 23.137,-14.045 35.719,-8.497 l 10.827,4.773 7.557,3.332 10.842,4.781 17.563,7.742 c 4.663,2.056 7.59,7.777 7.317,12.743 -0.124,2.264 -0.85,4.136 -2.779,5.376 -1.55,0.997 -3.304,1.595 -4.948,2.405 -1.398,0.689 -2.149,1.341 -2,2.983 0.218,2.421 0.855,4.74 0.581,7.196 -0.263,2.356 -1.124,4.371 -3.215,5.583 -1.594,0.922 -3.42,1.37 -4.989,2.334 -4.032,2.476 -0.505,7.566 -0.94,11.188 -0.516,4.318 -4.76,5.531 -8.158,7.141 -1.111,0.526 -2.601,1.151 -2.838,2.508 -0.244,1.394 0.488,2.873 0.551,4.271 0.198,4.478 -2.72,7.947 -6.89,9.126 -3.028,0.856 -6.632,0.846 -9.546,-0.438 L 52.21,65.506 C 53.353,69.04 49.709,71.75 46.669,72.314 41.817,73.217 36.729,71.06 32.576,68.773 25.891,65.095 19.514,60.714 14.471,54.927 8.804,48.423 5.297,40.338 5.018,31.665 c 0,0 -3.774,-1.843 -10.011,-4.827 2.116,-2.159 3.592,-4.932 3.768,-7.683 z"
         style="fill:#b3b31c;fill-opacity:1;fill-rule:nonzero;stroke:none"
         id="path82" /></g><g
       style=""
       id="g84"
       transform="matrix(1.3333333,0,0,-1.3333333,1601.1435,752.57031)"><path
         d="M 0,0 -1.05,0.156 C -1.059,-0.297 -1.069,-0.744 -1.08,-1.186 -0.75,-0.718 -0.375,-0.313 0,0"
         style="fill:#ea7128;fill-opacity:1;fill-rule:nonzero;stroke:none"
         id="path86" /></g><g
       style=""
       id="g88"
       transform="matrix(1.3333333,0,0,-1.3333333,1604.9807,643.23698)"><path
         d="m 0,0 18.985,-2.821 11.723,-1.741 9.079,-1.349 c -2,24.434 -3.817,43.577 -3.817,43.577 11.928,4.682 21.151,16.887 20.272,30.61 l -0.606,9.465 -0.678,10.586 -0.758,11.825 -1.225,19.156 c -0.337,5.264 -5.037,10.212 -10.065,11.425 -2.222,0.536 -4.013,0.218 -5.768,-1.232 -1.489,-1.23 -2.663,-2.791 -4.144,-4.024 -1.196,-0.996 -2.129,-0.774 -3.436,-0.084 -1.795,0.948 -3.506,2.027 -5.47,2.61 -2.044,0.607 -4.371,0.812 -6.22,-0.417 -1.556,-1.033 -2.645,-2.597 -3.988,-3.866 -1.229,-1.162 -2.664,-1.86 -4.356,-1.3 -1.719,0.57 -3.11,1.879 -4.674,2.751 -1.701,0.949 -3.907,1.613 -5.814,0.896 -1.852,-0.697 -3.32,-2.267 -4.671,-3.65 -1.069,-1.094 -2.294,-2.751 -3.813,-3.235 -1.152,-0.367 -2.256,0.504 -3.164,1.08 -3.35,2.123 -7.781,2.155 -10.829,-0.532 -2.958,-2.607 -4.861,-7.088 -4.607,-11.039 l 0.926,-14.462 c -1.72,0.583 -3.757,0.483 -5.377,-0.342 -3.498,-1.782 -4.424,-6.259 -4.69,-9.827 -0.403,-5.42 0.511,-10.914 1.312,-16.26 0.638,-4.255 1.393,-8.543 2.807,-12.618 1.337,-3.853 3.38,-7.389 6.35,-10.212 4.28,-4.07 9.853,-6.597 15.264,-8.78 0,0 1.701,-16.484 3.491,-38.044 C -5.481,-0.377 -2.604,0.386 0,0"
         style="fill:#ea7128;fill-opacity:1;fill-rule:nonzero;stroke:none"
         id="path90" /></g><g
       style=""
       id="g92"
       transform="matrix(1.3333333,0,0,-1.3333333,1637.6349,772.72004)"><path
         d="m 0,0 c -19.115,1.203 -26.486,4.846 -28.686,8.337 -0.47,-7.531 -2.163,-15 -3.828,-22.34 -2.461,-10.842 -5.306,-21.596 -8.255,-32.313 -3.252,-11.824 -6.665,-23.602 -10.157,-35.356 -28.757,17.301 -54.132,40.734 -74.054,69.48 l -0.669,-0.464 -19.879,-13.777 c 11.728,-16.922 25.402,-32.489 40.694,-46.278 14.974,-13.504 31.486,-25.293 49.119,-35.074 17.513,-9.715 36.122,-17.444 55.365,-22.995 19.348,-5.582 39.326,-8.959 59.433,-10.043 22.72,-1.226 45.576,0.479 67.867,5.032 l -5.002,24.494 c -0.32,-0.065 -0.641,-0.123 -0.962,-0.187 l -0.038,0.187 c -25.308,-5.167 -51.364,-6.259 -77.003,-3.097 -14.139,1.745 -28.123,4.747 -41.734,8.954 4.679,22.242 9.243,44.518 13.209,66.9 2.332,13.157 4.923,26.519 5.036,39.923 C 12.444,-0.567 4.755,-0.3 0,0 -19.115,1.203 4.755,-0.3 0,0"
         style="fill:#ea7128;fill-opacity:1;fill-rule:nonzero;stroke:none"
         id="path94" /></g><g
       style=""
       id="g96"
       transform="matrix(1.3333333,0,0,-1.3333333,1734.3856,723.63418)"><path
         d="m 0,0 5.261,10.613 5.942,11.988 c -18.614,2.369 -31.998,3.938 -31.998,3.938 -2.078,12.647 -12.076,24.224 -25.678,26.245 l -10.794,1.603 -9.079,1.348 -11.723,1.742 -18.985,2.821 c -5.179,0.767 -10.927,-2.709 -13.217,-7.307 -1.005,-2.017 -1.164,-3.865 -0.147,-5.887 0.886,-1.766 2.199,-3.27 3.122,-5.01 0.709,-1.336 0.393,-2.182 -0.527,-3.299 -1.196,-1.453 -2.519,-2.783 -3.499,-4.404 -1.084,-1.793 -1.996,-4.117 -1.354,-6.213 0.59,-1.93 2.039,-3.437 3.075,-5.125 0.925,-1.507 1.302,-3.114 0.32,-4.694 -0.922,-1.484 -2.413,-2.54 -3.561,-3.837 -1.258,-1.42 -2.373,-3.37 -2.163,-5.337 0.209,-1.952 1.425,-3.735 2.478,-5.331 0.88,-1.333 2.218,-2.852 2.483,-4.479 0.196,-1.206 -0.826,-2.119 -1.589,-2.888 -2.871,-2.893 -3.907,-7.278 -1.804,-10.922 1.953,-3.382 5.887,-6.134 9.767,-6.712 l 2.688,-0.399 1.05,-0.156 c -2.035,-1.701 -2.761,-4.554 -1.271,-6.847 0.446,-0.686 1.026,-1.278 1.659,-1.794 1.978,-1.612 4.452,-2.586 6.861,-3.345 4.184,-1.316 8.56,-2.006 12.909,-2.501 5.256,-0.598 10.586,-0.975 15.878,-0.79 6.754,0.235 13.56,1.442 19.729,4.281 6.006,2.762 11.156,7.082 14.863,12.562 0,0 7.838,-0.854 19.731,-2.293 -0.045,1.863 0.277,3.681 1.045,5.231 z"
         style="fill:#3aa4a4;fill-opacity:1;fill-rule:nonzero;stroke:none"
         id="path98" /></g><g
       style=""
       id="g100"
       transform="matrix(1.3333333,0,0,-1.3333333,1908.6349,530.62898)"><path
         d="m 0,0 c 7.156,-6.858 10.248,-12.093 11.05,-15.742 2.123,3.492 4.334,6.909 6.867,10.117 2.373,3.005 4.892,5.896 7.45,8.743 6.952,7.734 14.244,15.163 21.603,22.508 11.357,11.338 22.946,22.443 34.619,33.454 11.5,-21.208 19.783,-44.13 24.535,-67.782 2.779,-13.83 4.368,-27.904 4.711,-42.006 l 24.992,0.606 c -0.612,25.265 -4.839,50.448 -12.471,74.539 -7.212,22.767 -17.492,44.551 -30.497,64.583 -12.871,19.826 -28.408,37.897 -46.063,53.612 -16.484,14.674 -34.792,27.275 -54.359,37.476 L -19.12,157.94 C 6.307,144.684 28.755,127.32 47.555,106.812 32.603,90.19 17.738,73.481 3.259,56.445 -7.205,44.135 -18.019,31.81 -26.068,17.734 -26.94,16.21 -27.795,14.677 -28.642,13.139 -15.667,12.158 -4.966,4.759 0,0 7.156,-6.858 -4.966,4.759 0,0"
         style="fill:#ffc811;fill-opacity:1;fill-rule:nonzero;stroke:none"
         id="path102" /></g><g
       style=""
       id="g104"
       transform="matrix(1.3333333,0,0,-1.3333333,1856.2627,755.33724)"><path
         d="m 0,0 c 1.758,7.074 4.111,13.9 4.611,21.237 0.615,8.996 -1.568,17.887 -7.169,25.057 0,0 4.809,10.729 11.847,25.799 -1.745,0.489 -3.347,1.298 -4.584,2.443 l -14.082,13.041 -8.699,8.052 -9.599,8.891 C -37.258,84.232 -44.35,68.749 -44.35,68.749 -57.022,70.664 -71.113,64.715 -77.223,52.395 l -2.982,-6.017 -5.941,-11.987 -5.262,-10.614 -8.528,-17.198 c -2.23,-4.499 -0.863,-10.688 2.417,-14.334 1.415,-1.572 3.147,-2.706 5.317,-2.526 2.009,0.167 3.898,0.937 5.848,1.392 1.418,0.331 2.383,0.291 3.261,-0.943 1.015,-1.426 1.763,-3.019 2.829,-4.414 1.267,-1.657 3.124,-3.473 5.261,-3.847 2.164,-0.38 4.289,0.652 6.332,1.196 1.837,0.489 3.626,0.456 4.916,-1.109 1.163,-1.41 1.711,-3.235 2.669,-4.777 1.029,-1.658 2.649,-3.263 4.671,-3.515 1.977,-0.246 4.019,0.391 5.901,0.921 1.402,0.395 3.331,1.231 4.806,0.793 1.258,-0.373 1.738,-1.907 2.312,-2.928 2.318,-4.128 7.115,-5.642 11.429,-3.901 3.054,1.232 6.009,3.652 7.488,6.636 l 6.767,13.65 c 0.775,-1.924 3.144,-2.772 5.058,-2.845 2.335,-0.088 4.578,0.87 6.351,2.345 C -2.845,-8.75 -1.056,-4.25 0,0 1.791,7.209 -1.795,-7.224 0,0"
         style="fill:#ffc811;fill-opacity:1;fill-rule:nonzero;stroke:none"
         id="path106" /></g><g
       style=""
       id="g108"
       transform="matrix(1.3333333,0,0,-1.3333333,2057.4892,620.99871)"><path
         d="M 0,0 -0.003,-0.047 -1,0 c -1.742,-37.127 -13.416,-74.508 -33.4,-108.025 -21.058,9.339 -42.174,18.588 -63.562,27.151 -7.584,3.037 -15.206,6.041 -22.979,8.563 -8.619,2.797 -17.618,4.339 -26.525,5.895 2.572,-9.475 0.782,-19.266 -1.829,-28.514 -1.84,-6.515 -3.125,-15.005 -9.632,-18.625 4.784,-1.038 9.609,-2.106 14.251,-3.679 3.422,-1.161 6.769,-2.539 10.085,-3.97 9.419,-4.065 18.625,-8.626 27.77,-13.27 12.499,-6.347 24.871,-12.943 37.187,-19.636 -29.91,-31.045 -67.455,-54.499 -107.751,-67 l 7.408,-23.877 c 0.305,0.094 0.606,0.195 0.911,0.291 l 0.089,-0.291 c 21.153,6.562 41.484,15.725 60.454,27.151 18.676,11.249 36.033,24.682 51.635,39.91 16.953,16.548 31.835,35.219 44.115,55.483 12.279,20.263 21.948,42.124 28.449,64.917 5.233,18.35 8.402,37.291 9.297,56.354 z"
         style="fill:#3aa4a4;fill-opacity:1;fill-rule:nonzero;stroke:none"
         id="path110" /></g></g><flowRoot
     transform="translate(-22.598872,20.338984)"
     style="font-style:normal;font-weight:normal;font-size:40px;line-height:1.25;font-family:sans-serif;letter-spacing:0px;word-spacing:0px;opacity:1;fill:url(#linearGradient3273);fill-opacity:1;stroke:#000000;stroke-opacity:1;filter:url(#filter3399)"
     id="flowRoot1659"
     xml:space="preserve"><flowRegion
       style="fill:url(#linearGradient3433);fill-opacity:1;stroke:#000000;stroke-opacity:1"
       id="flowRegion1661"><rect
         style="fill:url(#linearGradient3431);fill-opacity:1;stroke:#000000;stroke-opacity:1"
         y="505.08478"
         x="442.9379"
         height="83.615829"
         width="378.5311"
         id="rect1663" /></flowRegion><flowPara
       style="fill:url(#linearGradient3435);fill-opacity:1;stroke:#000000;stroke-opacity:1"
       id="flowPara1665">projectX</flowPara></flowRoot></svg>