<?xml version="1.0" encoding="UTF-8" standalone="no"?>
<svg
   xmlns:dc="http://purl.org/dc/elements/1.1/"
   xmlns:cc="http://creativecommons.org/ns#"
   xmlns:rdf="http://www.w3.org/1999/02/22-rdf-syntax-ns#"
   xmlns:svg="http://www.w3.org/2000/svg"
   xmlns="http://www.w3.org/2000/svg"
   viewBox="0 0 1066.6667 1066.6667"
   height="1066.6667"
   width="1066.6667"
   xml:space="preserve"
   id="svg2"
   version="1.1"><metadata
     id="metadata8"><rdf:RDF><cc:Work
         rdf:about=""><dc:format>image/svg+xml</dc:format><dc:type
           rdf:resource="http://purl.org/dc/dcmitype/StillImage" /><dc:title></dc:title></cc:Work></rdf:RDF></metadata><defs
     id="defs6"><clipPath
       id="clipPath22"
       clipPathUnits="userSpaceOnUse"><path
         id="path20"
         d="M 8000,0 H 0 V 8000 H 8000 V 0 M 4523.36,274.59 c -3.73,0 -6.7,-1.25 -8.85,-3.629 -2.14,-2.481 -3.2,-6.141 -3.2,-11.082 v -111.93 c 0,-5.679 0.82,-9.918 2.33,-12.91 1.63,-2.93 4.82,-4.398 9.72,-4.398 8.28,0 12.44,5.75 12.44,17.089 v 38.93 c 4.59,-5.719 9.39,-10.14 14.41,-13.051 5.01,-2.98 11.27,-4.468 18.66,-4.468 6.16,0 11.85,1.211 17.27,3.629 5.34,2.441 9.96,5.96 13.9,10.449 3.91,4.531 7.05,10.121 9.29,16.801 2.23,6.699 3.35,14.062 3.35,22.011 0,10.84 -1.96,20.199 -5.85,28.149 -3.91,7.91 -9.18,13.922 -15.89,18.058 -6.72,4.082 -14.12,6.172 -22.07,6.172 -6.64,0 -12.64,-1.418 -17.82,-4.269 -5.31,-2.813 -10.39,-7.231 -15.25,-13.243 V 260 c 0,4.75 -1.13,8.32 -3.49,10.859 -2.29,2.481 -5.26,3.731 -8.95,3.731 M 3766.7,151.461 c -3.54,0 -6.22,-0.813 -8.01,-2.441 -1.82,-1.598 -2.71,-3.899 -2.71,-6.868 0,-4.382 1.89,-7.382 5.7,-9.043 3.79,-1.648 9.49,-2.468 17.08,-2.468 7.79,0 13.98,1.199 18.57,3.578 4.6,2.363 8.28,5.781 11.07,10.211 2.79,4.441 5.63,10.531 8.55,18.32 l 33.82,88.52 c 0.82,2.261 1.51,4.531 2.08,6.742 0.58,2.218 0.98,3.937 1.24,5.136 0,1.973 -0.5,3.821 -1.48,5.602 -0.98,1.781 -2.37,3.18 -4.17,4.219 -1.81,1.051 -3.69,1.582 -5.66,1.582 -2.72,0 -4.83,-0.492 -6.32,-1.442 -1.48,-0.937 -2.89,-2.777 -4.22,-5.488 -1.33,-2.742 -2.82,-6.512 -4.46,-11.312 l -20.8,-59.36 -21.95,63.832 c -1.45,4.43 -3.12,7.828 -5.02,10.199 -1.92,2.379 -4.73,3.571 -8.46,3.571 -2.16,0 -4.23,-0.571 -6.23,-1.719 -1.99,-1.133 -3.55,-2.652 -4.69,-4.57 -1.14,-1.891 -1.72,-3.942 -1.72,-6.153 0,-2.089 0.99,-5.468 2.95,-10.078 l 31.91,-80.351 -2.37,-5.801 c -1.77,-4.238 -3.34,-7.457 -4.7,-9.629 -1.37,-2.191 -2.9,-3.73 -4.61,-4.609 -1.71,-0.903 -4.06,-1.332 -7.03,-1.332 -1.2,0 -2.62,0.203 -4.27,0.57 -1.33,0.391 -2.69,0.582 -4.09,0.582 m -583.21,15.57 c -3.03,0 -5.63,-0.992 -7.78,-3.011 -2.16,-1.969 -3.24,-4.571 -3.24,-7.731 0,-4.18 1.91,-8.238 5.7,-12.207 3.81,-3.941 9.22,-7.172 16.24,-9.684 7.03,-2.5 15.01,-3.757 23.94,-3.757 9.75,0 17.91,0.98 24.46,2.949 6.55,1.961 11.85,4.98 15.91,9.031 4.05,4.039 7,9.18 8.82,15.371 1.84,6.207 2.77,13.629 2.77,22.238 v 75.321 c 0,6.129 -0.83,10.84 -2.48,14.101 -1.64,3.258 -4.96,4.899 -9.96,4.899 -3.49,0 -6.34,-1.25 -8.56,-3.711 -2.22,-2.481 -3.32,-5.961 -3.32,-10.449 v -3.52 c -4.62,6.02 -9.63,10.438 -15,13.27 -5.39,2.789 -11.76,4.211 -19.1,4.211 -6.14,0 -11.78,-1.09 -16.9,-3.282 -5.13,-2.179 -9.66,-5.422 -13.58,-9.718 -3.92,-4.321 -6.95,-9.59 -9.08,-15.883 -2.12,-6.25 -3.17,-13.297 -3.17,-21.071 0,-10.457 1.73,-19.648 5.22,-27.636 3.48,-7.992 8.47,-14.18 14.95,-18.621 6.5,-4.43 14.08,-6.653 22.75,-6.653 7.22,0 13.44,1.461 18.66,4.371 5.24,2.911 9.83,7.153 13.82,12.731 -0.12,-8.488 -0.31,-14.649 -0.56,-18.469 -0.25,-3.851 -1.12,-7.441 -2.61,-10.781 -1.49,-3.36 -4.09,-5.981 -7.79,-7.84 -3.71,-1.871 -8.92,-2.809 -15.63,-2.809 -3.29,0 -6.21,0.321 -8.74,0.899 -2.53,0.609 -4.7,1.519 -6.51,2.75 -1.79,1.23 -3.45,2.719 -4.94,4.48 -1.49,1.739 -2.93,3.469 -4.31,5.168 -2.85,3.364 -6.18,5.043 -9.98,5.043 m 749.15,31.949 v 0 l 0.13,-0.269 0.65,-1.352 0.65,-1.269 0.17,-0.328 c 3.03,-5.703 6.67,-10.934 10.81,-15.492 14.4,-15.739 29.07,-18.239 29.21,-18.258 l 0.23,-0.024 0.21,-0.078 c 0.13,-0.051 13.14,-4.25 32.92,-4.25 19.45,0 38.54,3.922 56.73,11.68 13.48,6.89 26.23,17.359 32.55,26.691 4.88,7.231 8.4,14.93 10.49,22.938 1.11,4.25 1.99,11.07 1.48,18.261 -3.97,-2.679 -10.24,-6.468 -18.72,-10.609 -14.1,-6.851 -37.29,-15.941 -67.82,-20.191 -11.98,-1.66 -23.59,-2.27 -34.28,-2.27 -13.91,0 -26.19,1.039 -35.62,2.231 -10.77,1.339 -19.18,3 -24.32,4.179 v 0 h -0.04 c 1.27,-4.011 2.8,-7.89 4.57,-11.59 m 1218.54,55.399 c 4.23,0 7.41,-1.18 9.53,-3.438 2.06,-2.269 3.36,-5.101 3.83,-8.48 0.46,-3.34 0.69,-7.789 0.69,-13.379 v -43.613 c 0,-5.367 1.26,-9.449 3.76,-12.231 2.51,-2.726 5.71,-4.117 9.65,-4.117 4.05,0 7.34,1.348 9.8,4.078 2.45,2.762 3.67,6.801 3.67,12.27 v 50.621 c 0,10.082 -1.09,17.441 -3.3,22.172 -2.55,5.16 -6.38,9.179 -11.48,11.957 -5.12,2.773 -11.27,4.191 -18.34,4.191 -6.09,0 -11.62,-1.289 -16.62,-3.859 -5.01,-2.582 -9.7,-6.531 -14.1,-11.801 -3.06,5.211 -6.9,9.16 -11.6,11.762 -4.67,2.597 -10.26,3.898 -16.78,3.898 -6.31,0 -11.96,-1.262 -17.13,-3.859 -5.09,-2.481 -9.91,-6.449 -14.44,-11.801 v 2.441 c 0,4.18 -1.18,7.457 -3.54,9.848 -2.41,2.32 -5.36,3.551 -8.92,3.551 -3.63,0 -6.6,-1.25 -8.9,-3.809 -2.23,-2.519 -3.35,-6.23 -3.35,-11.109 v -74.203 c 0,-5.367 1.24,-9.449 3.76,-12.231 2.5,-2.726 5.72,-4.117 9.67,-4.117 3.97,0 7.16,1.391 9.65,4.117 2.39,2.782 3.61,6.864 3.61,12.231 v 35.023 c 0,10.938 1.39,19.309 4.06,25.078 2.7,5.899 8.27,8.809 16.77,8.809 4.22,0 7.35,-1.18 9.31,-3.52 1.94,-2.289 3.16,-5.289 3.62,-8.828 0.43,-3.629 0.64,-8.711 0.64,-15.25 v -41.312 c 0,-5.469 1.25,-9.508 3.72,-12.27 2.37,-2.73 5.58,-4.078 9.51,-4.078 4.06,0 7.28,1.348 9.78,4.078 2.48,2.762 3.69,6.801 3.69,12.27 v 34.472 c 0,11.098 0.98,18.848 2.84,23.219 1.74,3.36 4.14,6.16 7.21,8.129 3.07,2.012 6.31,3.09 9.73,3.09 m -170.46,20.211 c -7.71,0 -14.77,-1.25 -21.21,-3.731 -6.38,-2.539 -11.79,-6.089 -16.31,-10.699 -4.5,-4.609 -7.97,-10.199 -10.39,-16.738 -2.34,-6.531 -3.58,-13.711 -3.58,-21.582 0,-7.758 1.21,-14.871 3.5,-21.309 2.44,-6.429 5.91,-12 10.52,-16.761 4.55,-4.688 10.03,-8.34 16.26,-10.821 6.28,-2.558 13.36,-3.828 21.21,-3.828 7.89,0 14.99,1.27 21.39,3.75 6.3,2.52 11.77,6.117 16.32,10.801 4.58,4.648 8.02,10.258 10.5,16.777 2.33,6.539 3.55,13.692 3.55,21.391 0,7.832 -1.2,14.922 -3.53,21.422 -2.38,6.429 -5.82,11.968 -10.4,16.718 -4.62,4.649 -10.06,8.282 -16.44,10.801 -6.41,2.559 -13.55,3.809 -21.39,3.809 M 3680.94,186.5 c 2.85,-3.301 5.15,-5.781 6.89,-7.418 1.74,-1.641 3.86,-3.242 6.31,-4.781 2.47,-1.571 5.46,-2.813 8.99,-3.75 3.5,-0.961 7.25,-1.43 11.25,-1.43 6.52,0 12.49,1.309 17.9,3.93 5.42,2.629 10.02,6.359 13.82,11.168 3.8,4.801 6.7,10.492 8.69,17.051 2,6.562 3,13.75 3,21.601 0,10.649 -1.8,19.848 -5.37,27.598 -3.59,7.75 -8.62,13.672 -15.1,17.769 -6.5,4.063 -14.04,6.114 -22.66,6.114 -7.47,0 -13.74,-1.34 -18.8,-4.043 -5.07,-2.668 -10.04,-6.559 -14.92,-11.618 v 39.59 c 0,4.77 -1.08,8.399 -3.23,10.981 -2.15,2.558 -5.21,3.847 -9.21,3.847 -3.79,0 -6.76,-1.347 -8.89,-4.05 -2.11,-2.668 -3.17,-6.661 -3.17,-11.907 V 183.93 c 0,-4.871 1.09,-8.559 3.28,-11.078 2.18,-2.5 5.11,-3.731 8.78,-3.731 3.61,0 6.59,1.231 8.93,3.731 2.34,2.519 3.51,6.207 3.51,11.078 v 2.57 m -105.98,0 v -2.57 c 0,-4.75 1.16,-8.399 3.47,-10.981 2.32,-2.558 5.25,-3.828 8.79,-3.828 3.61,0 6.55,1.231 8.83,3.688 2.28,2.48 3.42,6.179 3.42,11.121 v 114.351 c 0,4.879 -1.06,8.559 -3.18,11.078 -2.12,2.5 -5.15,3.75 -9.07,3.75 -3.92,0 -6.96,-1.367 -9.07,-4.089 -2.13,-2.731 -3.19,-6.739 -3.19,-12.071 v -38.258 c -4.87,5.289 -9.87,9.258 -15,11.821 -5.13,2.558 -11.43,3.84 -18.9,3.84 -12.92,0 -23.33,-4.532 -31.25,-13.571 -7.92,-9.062 -11.87,-21.699 -11.87,-37.91 0,-7.66 1,-14.781 2.99,-21.371 2,-6.602 4.92,-12.32 8.79,-17.18 3.86,-4.89 8.43,-8.64 13.72,-11.269 5.29,-2.621 11.03,-3.93 17.24,-3.93 4.69,0 9.01,0.629 12.96,1.949 3.96,1.289 7.63,3.192 11.02,5.711 3.39,2.481 6.82,5.739 10.3,9.719 m -132.09,88.23 c -7.79,0 -14.89,-1.25 -21.28,-3.75 -6.4,-2.5 -11.78,-6.101 -16.14,-10.781 -4.38,-4.687 -7.71,-10.301 -9.99,-16.859 -2.27,-6.539 -3.42,-13.649 -3.42,-21.328 0,-16.274 4.64,-29.16 13.87,-38.653 9.25,-9.488 22.2,-14.238 38.85,-14.238 7.28,0 13.73,0.938 19.33,2.848 5.61,1.902 10.25,4.281 13.96,7.172 3.7,2.871 6.47,5.879 8.31,9.019 1.84,3.149 2.76,5.86 2.76,8.211 0,2.668 -0.82,4.707 -2.47,6.168 -1.64,1.461 -3.8,2.211 -6.46,2.211 -2.47,0 -4.37,-0.59 -5.7,-1.719 -3.23,-3.031 -5.86,-5.449 -7.87,-7.23 -2.04,-1.781 -4.26,-3.442 -6.65,-4.981 -2.42,-1.558 -4.91,-2.691 -7.46,-3.441 -2.57,-0.719 -5.41,-1.07 -8.51,-1.07 -4.62,0 -8.85,1.132 -12.67,3.421 -3.84,2.258 -6.91,5.661 -9.22,10.149 -2.32,4.5 -3.49,9.691 -3.56,15.57 h 50.71 c 6.78,0 12.04,0.981 15.77,2.91 3.74,1.93 5.61,6.153 5.61,12.692 0,7.019 -1.81,13.929 -5.41,20.711 -3.62,6.758 -9.05,12.277 -16.3,16.558 -7.25,4.282 -15.94,6.41 -26.06,6.41 m -106.85,-20.218 c 7.09,0 11.82,-2.282 14.2,-6.801 2.37,-4.531 3.56,-11.07 3.56,-19.602 v -43.23 c 0,-5.059 1.2,-8.957 3.61,-11.68 2.41,-2.73 5.54,-4.078 9.41,-4.078 3.8,0 6.88,1.328 9.26,3.988 2.37,2.653 3.56,6.582 3.56,11.77 v 48.242 c 0,5.711 -0.26,10.399 -0.77,14.07 -0.5,3.668 -1.6,7.09 -3.32,10.27 -2.65,5.43 -6.68,9.629 -12.06,12.621 -5.38,2.969 -11.49,4.469 -18.33,4.469 -7.03,0 -13.25,-1.43 -18.67,-4.242 -5.41,-2.809 -10.4,-7.219 -14.95,-13.239 v 3.129 c 0,3.102 -0.55,5.742 -1.66,7.891 -1.11,2.148 -2.59,3.75 -4.42,4.84 -1.84,1.07 -3.9,1.621 -6.18,1.621 -3.73,0 -6.68,-1.231 -8.83,-3.649 -2.15,-2.441 -3.23,-6.132 -3.23,-11.074 v -74.949 c 0,-5.059 1.21,-8.957 3.61,-11.68 2.41,-2.73 5.47,-4.078 9.22,-4.078 3.86,0 7.01,1.309 9.45,3.93 2.42,2.629 3.65,6.578 3.65,11.828 v 32.48 c 0,10.59 0.63,17.801 1.9,21.661 1.77,4.812 4.56,8.601 8.36,11.351 3.8,2.758 8.01,4.141 12.63,4.141 m -192.41,20.039 c -3.8,0 -6.89,-1.313 -9.26,-3.91 -2.38,-2.59 -3.56,-6.461 -3.56,-11.582 v -74.18 c 0,-5.059 1.18,-8.957 3.56,-11.68 2.37,-2.73 5.46,-4.078 9.26,-4.078 3.81,0 6.93,1.328 9.41,3.988 2.47,2.653 3.7,6.582 3.7,11.77 v 74.949 c 0,4.602 -1.23,8.223 -3.7,10.813 -2.48,2.597 -5.6,3.91 -9.41,3.91 m -104.36,-67.262 c -3.11,0 -5.68,-1.019 -7.7,-3.027 -2.03,-2.032 -3.04,-4.453 -3.04,-7.313 0,-4.308 1.58,-8.59 4.75,-12.89 3.16,-4.258 8.07,-7.829 14.72,-10.657 6.65,-2.851 14.63,-4.281 23.93,-4.281 9.75,0 18.04,1.309 24.84,3.93 6.81,2.629 11.96,6.5 15.43,11.601 3.49,5.098 5.23,11.227 5.23,18.379 0,4.739 -1.31,8.957 -3.93,12.668 -2.64,3.711 -6.51,6.942 -11.6,9.653 -5.1,2.718 -11.67,5.058 -19.7,7.027 -6.79,1.641 -12.1,3.031 -15.96,4.16 -3.87,1.141 -6.94,2.582 -9.22,4.34 -2.28,1.742 -3.42,3.961 -3.42,6.703 0,2.969 1.56,5.449 4.66,7.438 3.1,2.011 6.99,2.992 11.68,2.992 4.56,0 8.17,-0.742 10.83,-2.274 2.67,-1.519 4.97,-3.547 6.93,-6.086 2.41,-3.031 4.55,-5.312 6.41,-6.82 1.87,-1.543 4.13,-2.301 6.79,-2.301 3.68,0 6.51,0.969 8.51,2.848 1.98,1.91 2.98,4.351 2.98,7.32 0,2.742 -0.93,5.512 -2.8,8.36 -1.86,2.851 -4.58,5.453 -8.16,7.781 -3.57,2.34 -8.05,4.23 -13.4,5.601 -5.34,1.411 -11.38,2.11 -18.09,2.11 -8.55,0 -15.85,-1.379 -21.88,-4.141 -6.06,-2.75 -10.63,-6.449 -13.74,-11.051 -3.1,-4.629 -4.65,-9.55 -4.65,-14.73 0,-5.82 1.68,-10.738 5.03,-14.731 3.36,-3.976 7.83,-7.207 13.44,-9.628 5.61,-2.438 12.87,-4.778 21.8,-6.989 7.91,-1.89 13.6,-3.91 17.05,-5.992 3.45,-2.09 5.17,-5.398 5.17,-9.969 0,-2.961 -1.66,-5.601 -4.98,-7.922 -3.32,-2.308 -7.58,-3.476 -12.77,-3.476 -6.41,0 -11.45,1.148 -15.15,3.418 -3.71,2.301 -6.9,5.719 -9.56,10.371 -1.32,2.379 -2.71,4.258 -4.17,5.578 -1.46,1.332 -3.55,2 -6.26,2 m -66.39,67.441 c -7.79,0 -14.88,-1.25 -21.27,-3.75 -6.41,-2.5 -11.78,-6.101 -16.16,-10.781 -4.36,-4.687 -7.68,-10.301 -9.97,-16.859 -2.28,-6.539 -3.41,-13.649 -3.41,-21.328 0,-16.274 4.62,-29.16 13.86,-38.653 9.25,-9.488 22.2,-14.238 38.84,-14.238 7.29,0 13.74,0.938 19.33,2.848 5.62,1.902 10.26,4.281 13.97,7.172 3.7,2.871 6.47,5.879 8.32,9.019 1.82,3.149 2.75,5.86 2.75,8.211 0,2.668 -0.83,4.707 -2.48,6.168 -1.64,1.461 -3.79,2.211 -6.44,2.211 -2.48,0 -4.38,-0.59 -5.71,-1.719 -3.24,-3.031 -5.86,-5.449 -7.88,-7.23 -2.03,-1.781 -4.24,-3.442 -6.65,-4.981 -2.41,-1.558 -4.89,-2.691 -7.46,-3.441 -2.57,-0.719 -5.4,-1.07 -8.5,-1.07 -4.62,0 -8.85,1.132 -12.68,3.421 -3.83,2.258 -6.91,5.661 -9.21,10.149 -2.32,4.5 -3.5,9.691 -3.56,15.57 h 50.71 c 6.78,0 12.04,0.981 15.77,2.91 3.73,1.93 5.61,6.153 5.61,12.692 0,7.019 -1.82,13.929 -5.42,20.711 -3.6,6.758 -9.04,12.277 -16.3,16.558 -7.24,4.282 -15.93,6.41 -26.06,6.41 m -87.94,-88.23 v -2.57 c 0,-4.75 1.15,-8.399 3.46,-10.981 2.32,-2.558 5.25,-3.828 8.79,-3.828 3.62,0 6.55,1.231 8.84,3.688 2.28,2.48 3.41,6.179 3.41,11.121 v 114.351 c 0,4.879 -1.06,8.559 -3.18,11.078 -2.13,2.5 -5.14,3.75 -9.07,3.75 -3.93,0 -6.95,-1.367 -9.06,-4.089 -2.13,-2.731 -3.19,-6.739 -3.19,-12.071 v -38.258 c -4.88,5.289 -9.88,9.258 -15.01,11.821 -5.12,2.558 -11.43,3.84 -18.89,3.84 -12.92,0 -23.34,-4.532 -31.26,-13.571 -7.91,-9.062 -11.87,-21.699 -11.87,-37.91 0,-7.66 1,-14.781 2.99,-21.371 2,-6.602 4.92,-12.32 8.79,-17.18 3.86,-4.89 8.44,-8.64 13.72,-11.269 5.29,-2.621 11.03,-3.93 17.24,-3.93 4.69,0 9.01,0.629 12.96,1.949 3.96,1.289 7.64,3.192 11.03,5.711 3.38,2.481 6.82,5.739 10.3,9.719 m 1906.43,11.23 c -4.01,0 -7.34,-1.398 -10.08,-4.191 -2.72,-2.758 -4.1,-6.098 -4.1,-9.949 0,-4.59 1.44,-8.16 4.29,-10.641 2.86,-2.558 6.22,-3.808 10.13,-3.808 3.79,0 7.11,1.25 9.98,3.851 2.79,2.52 4.22,6.067 4.22,10.598 0,3.89 -1.43,7.269 -4.22,10.019 -2.87,2.723 -6.25,4.121 -10.22,4.121 m -78.96,20.899 22.84,-37.649 c 2.9,-4.46 5.28,-7.558 6.98,-9.281 1.7,-1.758 4.17,-2.558 7.33,-2.558 3.62,0 6.61,1.168 8.86,3.539 2.26,2.402 3.41,5.621 3.41,9.742 0,1.43 -0.46,3.027 -1.3,4.629 -0.85,1.621 -2.31,3.929 -4.24,7.051 l -26.59,41.839 13.77,12.618 c 7.01,6.32 10.54,11.421 10.54,15.211 0,3.089 -1.09,5.679 -3.2,7.742 -2.21,2.047 -4.89,3.078 -8.15,3.078 -2.71,0 -5,-0.68 -6.9,-2.07 -1.94,-1.391 -4.65,-4.02 -8.27,-7.79 l -29.16,-30.628 v 62.929 c 0,5.289 -1.19,9.321 -3.53,12.028 -2.37,2.742 -5.5,4.101 -9.5,4.101 -4.08,0 -7.3,-1.461 -9.53,-4.512 -2.17,-3.019 -3.31,-7.398 -3.31,-13.136 V 184.879 c 0,-5.168 1.17,-9.098 3.44,-11.731 2.26,-2.699 5.42,-4.007 9.4,-4.007 3.4,0 6.5,1.328 9.07,4.058 2.63,2.68 3.96,6.512 3.96,11.492 v 20.661 l 14.08,13.277 m -73.86,55.961 c -3.81,0 -6.85,-1.27 -9.28,-3.91 -2.34,-2.59 -3.56,-6.438 -3.56,-11.539 v -74.282 c 0,-5.019 1.22,-8.898 3.56,-11.66 2.43,-2.73 5.47,-4.058 9.28,-4.058 3.8,0 6.91,1.308 9.41,4.007 2.46,2.633 3.7,6.563 3.7,11.711 v 75.02 c 0,4.57 -1.24,8.211 -3.7,10.801 -2.5,2.64 -5.61,3.91 -9.41,3.91 m -185.95,0.199 c -7.79,0 -14.91,-1.25 -21.29,-3.75 -6.42,-2.5 -11.79,-6.078 -16.14,-10.789 -4.38,-4.699 -7.7,-10.289 -9.96,-16.871 -2.32,-6.559 -3.48,-13.668 -3.48,-21.348 0,-16.25 4.65,-29.16 13.89,-38.672 9.27,-9.488 22.19,-14.218 38.86,-14.218 7.27,0 13.77,0.961 19.35,2.847 5.56,1.883 10.25,4.301 13.95,7.153 3.75,2.89 6.54,5.879 8.3,9.058 1.87,3.11 2.74,5.84 2.74,8.192 0,2.668 -0.75,4.699 -2.4,6.168 -1.67,1.48 -3.82,2.222 -6.51,2.222 -2.42,0 -4.33,-0.601 -5.68,-1.73 -3.24,-3.031 -5.89,-5.449 -7.88,-7.192 -2.04,-1.82 -4.22,-3.48 -6.64,-5 -2.44,-1.558 -4.91,-2.718 -7.5,-3.418 -2.52,-0.781 -5.37,-1.109 -8.45,-1.109 -4.66,0 -8.89,1.129 -12.71,3.398 -3.82,2.301 -6.9,5.7 -9.21,10.168 -2.3,4.481 -3.49,9.711 -3.55,15.594 H 4479 c 6.76,0 12.01,0.957 15.75,2.887 3.71,1.953 5.62,6.172 5.62,12.66 0,7.07 -1.85,13.941 -5.45,20.742 -3.55,6.778 -9.01,12.321 -16.21,16.539 -7.35,4.321 -16.04,6.469 -26.13,6.469 m -107.85,0 c -7.82,0 -14.9,-1.25 -21.28,-3.75 -6.43,-2.5 -11.77,-6.078 -16.13,-10.789 -4.41,-4.699 -7.74,-10.289 -9.99,-16.871 -2.3,-6.559 -3.47,-13.668 -3.47,-21.348 0,-16.25 4.67,-29.16 13.91,-38.672 9.23,-9.488 22.16,-14.218 38.87,-14.218 7.26,0 13.72,0.961 19.32,2.847 5.58,1.883 10.23,4.301 13.97,7.153 3.73,2.89 6.49,5.879 8.36,9.058 1.79,3.11 2.68,5.84 2.68,8.192 0,2.668 -0.77,4.699 -2.44,6.168 -1.68,1.48 -3.8,2.222 -6.49,2.222 -2.44,0 -4.34,-0.601 -5.68,-1.73 -3.23,-3.031 -5.88,-5.449 -7.9,-7.192 -2.04,-1.82 -4.22,-3.48 -6.64,-5 -2.41,-1.558 -4.92,-2.718 -7.46,-3.418 -2.56,-0.781 -5.39,-1.109 -8.49,-1.109 -4.65,0 -8.84,1.129 -12.69,3.398 -3.84,2.301 -6.89,5.7 -9.25,10.168 -2.3,4.481 -3.45,9.711 -3.54,15.594 h 50.74 c 6.78,0 12.02,0.957 15.75,2.887 3.74,1.953 5.62,6.172 5.62,12.66 0,7.07 -1.81,13.941 -5.42,20.742 -3.55,6.778 -9.05,12.321 -16.29,16.539 -7.26,4.321 -15.96,6.469 -26.06,6.469 m -106.18,-0.199 c -8.41,0 -12.61,-5.82 -12.61,-17.481 v -72.23 c 0,-5.168 1.24,-9.098 3.6,-11.731 2.39,-2.699 5.45,-4.007 9.27,-4.007 3.79,0 6.9,1.289 9.37,3.949 2.42,2.59 3.74,6.562 3.74,11.789 v 21.68 c 0,7.781 0.23,14.402 0.72,19.812 0.53,5.391 1.43,10.098 2.72,14.039 1.34,3.91 3.22,6.82 5.65,8.871 2.39,1.949 5.51,2.989 9.31,2.989 2.75,0 5.98,-0.61 9.63,-1.739 3.61,-1.179 5.93,-1.801 6.92,-1.801 2.52,0 4.87,1.04 7.07,3.129 2.15,2.012 3.26,4.661 3.26,7.813 0,4.469 -2.56,8.098 -7.72,10.84 -5.12,2.726 -10.36,4.078 -15.85,4.078 -5.47,0 -9.77,-1.352 -13.09,-4.078 -3.25,-2.742 -6.41,-6.742 -9.49,-12.071 -0.22,5.329 -1.28,9.329 -3.17,12.071 -1.9,2.726 -5,4.078 -9.33,4.078 m -71.52,-2.289 c -8.69,0 -13.04,-3.082 -13.04,-9.309 0,-2.793 1.06,-5.082 3.15,-6.781 2.11,-1.781 5.05,-2.621 8.93,-2.621 h 7.14 v -68.711 c 0,-5.109 1.2,-9 3.65,-11.68 2.47,-2.73 5.5,-4.058 9.18,-4.058 3.88,0 7.01,1.328 9.42,4.058 2.49,2.68 3.69,6.571 3.69,11.68 v 68.711 h 6.33 c 4.65,0 8.27,0.57 10.89,1.699 2.65,1.16 3.92,3.871 3.92,8.051 0,6 -4.9,8.961 -14.81,8.961 h -6.33 v 6.179 c 0,5.149 0.68,9.079 1.95,11.829 1.39,2.761 4.38,4.16 9.06,4.16 1.7,0 3.85,-0.227 6.23,-0.559 2.49,-0.41 4.27,-0.59 5.27,-0.59 2.15,0 4.03,0.86 5.58,2.559 1.61,1.703 2.4,3.773 2.4,6.152 0,7.457 -7.53,11.129 -22.73,11.129 -8.53,0 -15.26,-1.09 -20.16,-3.262 -4.91,-2.179 -8.43,-5.656 -10.47,-10.449 -2.07,-4.797 -3.07,-11.23 -3.07,-19.367 v -7.781 h -6.18 m 707.43,2.488 c -10.78,0 -20.14,-2.23 -27.94,-6.699 -7.77,-4.481 -13.74,-10.801 -17.81,-18.949 -4.15,-8.18 -6.19,-17.559 -6.19,-28.239 0,-15.703 4.5,-28.242 13.46,-37.601 8.99,-9.321 21.51,-14 37.57,-14 7.5,0 14.3,1.031 20.31,3.058 6.03,2.012 11,4.711 14.95,8.032 3.97,3.32 6.94,6.8 8.86,10.511 1.94,3.649 2.91,7.129 2.91,10.328 0,2.719 -1.07,5.29 -3.18,7.7 -2.06,2.402 -4.69,3.629 -7.86,3.629 -2.66,0 -4.93,-0.86 -6.76,-2.5 -1.81,-1.657 -3.5,-3.93 -5.08,-6.84 -2.85,-4.938 -6.11,-8.61 -9.87,-11.008 -3.7,-2.41 -8.15,-3.621 -13.37,-3.621 -3.83,0 -7.39,0.73 -10.63,2.269 -3.23,1.481 -5.96,3.672 -8.26,6.539 -2.3,2.872 -4.04,6.372 -5.21,10.434 -1.2,4.078 -1.83,8.598 -1.83,13.477 0,10.351 2.36,18.589 7.04,24.55 4.69,6 10.91,8.961 18.53,8.961 5.33,0 9.71,-1.191 13.14,-3.609 3.49,-2.379 6.78,-6.012 9.96,-10.801 1.73,-2.519 3.35,-4.301 4.78,-5.41 1.44,-1.09 3.23,-1.66 5.41,-1.66 3.23,0 6.04,1.09 8.39,3.242 2.3,2.148 3.43,4.789 3.43,7.867 0,3.071 -1.01,6.352 -3.08,9.871 -2.04,3.489 -5.03,6.77 -8.89,9.922 -3.93,3.086 -8.65,5.637 -14.25,7.598 -5.65,1.969 -11.79,2.949 -18.53,2.949 M 3925.69,219.82 v 0 c 5.29,-1.34 30.41,-7.23 62.52,-7.23 10.4,0 21.53,0.621 32.96,2.211 29.27,4.09 51.5,12.738 64.99,19.281 11.21,5.43 18.42,10.348 21.2,12.379 -2.77,10.281 -10.42,26.41 -17.43,36.469 -20.05,28.652 -41.67,36 -52.77,37.832 -4.24,0.679 -7.63,1.097 -12.43,1.097 -4.48,0 -10.02,-0.379 -17.43,-1.16 -7.44,-0.758 -15.72,-2.707 -25.33,-5.949 -13.47,-4.512 -25.67,-11.59 -35.27,-20.469 l -0.32,-0.312 c -1.43,-1.309 -4.39,-4.071 -7.81,-8.399 -0.41,-0.609 -6.52,-9.261 -11.35,-22.539 -3.62,-9.941 -3.46,-24.441 -3.46,-24.59 v -0.039 c 0,-3.402 0.19,-6.761 0.57,-10.101 l 0.02,-0.172 0.15,-1.27 c 0.01,-0.078 0.02,-0.148 0.03,-0.218 0.3,-2.282 0.67,-4.551 1.13,-6.821 h 0.03 m -20.77,55.852 c 1.91,0 3.31,-0.512 4.26,-1.57 1.11,-1.211 1.48,-2.954 1.6,-4.282 l -0.03,-0.039 c -4.36,-11.89 -3.11,-26.691 -3.11,-26.691 l 10.57,-0.43 c 0.21,5.391 0.98,14.82 3.71,22.301 5.27,14.488 11.86,23.559 12.13,23.949 l 0.06,0.07 1.13,1.43 -3.13,2.25 -4.88,3.57 c -0.27,-0.39 -7.95,-7.441 -14.01,-20.492 l -0.9,1.192 c -1.77,1.941 -4.22,2.949 -7.32,2.949 -0.08,0 -0.17,0 -0.26,0 h -0.15 c -2,0 -3.37,0.672 -4.27,1.473 0.9,1.128 1.43,2.558 1.43,4.14 0,3.668 -3,6.68 -6.69,6.68 -3.69,0 -6.69,-3.012 -6.69,-6.68 0,-3.711 3,-6.703 6.69,-6.703 l 1.67,0.223 c 1.6,-1.801 4.13,-3.352 7.8,-3.352 0.09,0 0.18,0 0.27,0 0.04,0.012 0.08,0.012 0.12,0.012 m 179.91,38.508 -7.58,-8.121 c 5.73,-5.219 11.59,-11.758 17.28,-19.911 3.94,-5.636 7.99,-12.91 11.36,-20.148 l 10.24,4.859 c 0,0 -4.68,11.563 -11.26,21.911 1.15,0.41 2.3,1.039 3.31,1.941 2,1.801 2.99,4.348 2.93,7.57 -0.02,2.078 0.67,3.481 1.49,4.418 1.14,-0.879 2.57,-1.429 4.12,-1.429 3.71,0 6.7,2.992 6.7,6.679 0,3.711 -2.99,6.699 -6.7,6.699 -3.68,0 -6.69,-2.988 -6.69,-6.699 l 0.23,-1.64 c -1.83,-1.661 -3.42,-4.27 -3.37,-8.098 0.03,-1.981 -0.47,-3.402 -1.54,-4.379 -0.85,-0.742 -1.91,-1.152 -2.96,-1.402 -7.87,11.031 -17.56,17.75 -17.56,17.75 m -940.93,-2.211 c -3.48,0 -6.54,-1.188 -9.17,-3.567 -2.63,-2.382 -3.94,-5.39 -3.94,-9.062 0,-4.07 1.28,-7.211 3.85,-9.418 2.56,-2.211 5.65,-3.32 9.26,-3.32 3.48,0 6.49,1.128 9.01,3.378 2.54,2.25 3.81,5.352 3.81,9.36 0,4.121 -1.3,7.242 -3.9,9.39 -2.59,2.172 -5.57,3.239 -8.92,3.239 m 1494.9,0.062 c -3.48,0 -6.52,-1.211 -9.14,-3.551 -2.66,-2.41 -3.97,-5.41 -3.97,-9.109 0,-4.039 1.28,-7.121 3.88,-9.351 2.54,-2.211 5.61,-3.36 9.23,-3.36 3.51,0 6.52,1.149 9.06,3.36 2.51,2.25 3.78,5.371 3.78,9.351 0,4.129 -1.31,7.289 -3.91,9.481 -2.57,2.128 -5.53,3.179 -8.93,3.179 m -630.43,49.34 c -5.83,0 -10.56,-4.711 -10.56,-10.531 0,-5.078 3.59,-9.34 8.36,-10.348 l 1.34,-4.633 c -16.34,-2.25 -29.35,-8.609 -29.35,-8.609 l 2.3,-7.051 c 9.89,3.281 18.47,5.293 26.24,6.133 7.62,0.797 13.36,1.148 18.03,1.148 5.01,0 8.71,-0.39 12.94,-1.109 l 1.21,7.629 c 0,0 -8.5,2.609 -20.52,2.609 -2.1,0 -4.3,-0.078 -6.58,-0.257 l -1.21,4.14 c 4.78,1.008 8.38,5.27 8.38,10.348 0,5.82 -4.75,10.531 -10.58,10.531 m 972.35,-172.969 c -5.17,0 -9.67,1.387 -13.52,4.039 -3.84,2.7 -6.78,6.559 -8.86,11.661 -2.07,5.058 -3.1,10.957 -3.1,17.738 0,6.851 1.07,12.851 3.16,17.98 2.09,5.16 5.03,9.032 8.9,11.649 3.87,2.613 8.35,3.941 13.42,3.941 7.84,0 14.11,-2.93 18.74,-8.89 4.64,-5.872 6.98,-14.098 6.98,-24.68 0,-10.41 -2.34,-18.621 -6.98,-24.52 -4.63,-5.949 -10.9,-8.918 -18.74,-8.918 m -1272.9,0.739 c -7.66,0 -13.85,2.789 -18.57,8.339 -4.71,5.532 -7.07,13.461 -7.07,23.77 0,7.031 1.11,13.109 3.32,18.199 2.22,5.102 5.26,8.992 9.12,11.68 3.86,2.68 8.26,4.031 13.2,4.031 4.81,0 9.03,-1.351 12.64,-4.031 3.61,-2.688 6.39,-6.5 8.35,-11.438 1.97,-4.941 2.94,-10.839 2.94,-17.679 0,-10.563 -2.36,-18.692 -7.07,-24.352 -4.71,-5.691 -10.34,-8.519 -16.86,-8.519 m -159.17,0 c -4.49,0 -8.64,1.269 -12.43,3.769 -3.81,2.5 -6.8,6.211 -8.98,11.149 -2.19,4.941 -3.28,10.921 -3.28,17.953 0,6.66 1.03,12.5 3.09,17.539 2.06,5.039 4.96,8.89 8.69,11.578 3.73,2.68 7.98,4.031 12.72,4.031 4.56,0 8.75,-1.308 12.59,-3.93 3.83,-2.64 6.88,-6.429 9.12,-11.39 2.25,-4.981 3.37,-10.91 3.37,-17.828 0,-7.321 -1.12,-13.473 -3.37,-18.383 -2.24,-4.899 -5.26,-8.547 -9.03,-10.918 -3.76,-2.379 -7.92,-3.57 -12.49,-3.57 m -690.04,0 c -4.49,0 -8.64,1.269 -12.44,3.769 -3.8,2.5 -6.79,6.211 -8.98,11.149 -2.18,4.941 -3.27,10.921 -3.27,17.953 0,6.66 1.02,12.5 3.09,17.539 2.05,5.039 4.95,8.89 8.68,11.578 3.74,2.68 7.99,4.031 12.73,4.031 4.56,0 8.75,-1.308 12.59,-3.93 3.83,-2.64 6.87,-6.429 9.11,-11.39 2.25,-4.981 3.37,-10.91 3.37,-17.828 0,-7.321 -1.12,-13.473 -3.37,-18.383 -2.24,-4.899 -5.25,-8.547 -9.02,-10.918 -3.77,-2.379 -7.93,-3.57 -12.49,-3.57 m 1703.9,0.039 c -7.27,0 -13.25,2.851 -18.13,8.59 -4.91,5.73 -7.35,13.789 -7.35,24.07 0,10.969 2.47,19.25 7.39,24.922 4.91,5.597 10.95,8.429 18.09,8.429 4.5,0 8.65,-1.32 12.32,-3.961 3.68,-2.601 6.58,-6.351 8.67,-11.269 2.08,-4.902 3.14,-10.781 3.14,-17.641 0,-7.07 -1.11,-13.121 -3.32,-18.14 -2.19,-5 -5.13,-8.75 -8.84,-11.27 -3.67,-2.461 -7.68,-3.73 -11.97,-3.73 m -1342.64,1.582 c -7.28,0 -13.22,2.699 -17.81,8.09 -4.59,5.367 -6.88,13.32 -6.88,23.828 0,10.39 2.23,18.39 6.7,24.019 4.45,5.641 10.39,8.461 17.8,8.461 7.6,0 13.72,-2.949 18.38,-8.828 4.66,-5.883 6.98,-14.121 6.98,-24.691 0,-6.661 -1.21,-12.301 -3.61,-16.95 -2.41,-4.652 -5.52,-8.152 -9.36,-10.449 -3.83,-2.312 -7.89,-3.48 -12.2,-3.48 m 245.69,39.418 h -47.01 c 0.89,8.75 3.39,15.351 7.54,19.82 4.15,4.449 9.46,6.68 15.92,6.68 6.77,0 12.23,-2.192 16.38,-6.598 4.15,-4.402 6.54,-11.043 7.17,-19.902 m -470,0 h -47.01 c 0.89,8.75 3.4,15.351 7.55,19.82 4.14,4.449 9.45,6.68 15.91,6.68 6.77,0 12.23,-2.192 16.38,-6.598 4.14,-4.402 6.55,-11.043 7.17,-19.902 m 1479.72,0.05 h -47.01 c 0.84,8.731 3.38,15.321 7.51,19.77 4.17,4.488 9.47,6.699 15.93,6.699 6.81,0 12.21,-2.187 16.42,-6.597 4.12,-4.383 6.52,-11.02 7.15,-19.872 m -107.88,0 h -47.01 c 0.87,8.731 3.41,15.321 7.55,19.77 4.15,4.488 9.46,6.699 15.92,6.699 6.81,0 12.22,-2.187 16.4,-6.597 4.16,-4.383 6.52,-11.02 7.14,-19.872 m -388.55,6.372 c -15.54,0 -28.16,12.597 -28.16,28.148 0,15.559 12.62,28.18 28.16,28.18 15.57,0 28.17,-12.621 28.17,-28.18 0,-15.551 -12.6,-28.148 -28.17,-28.148 m 82.42,20.757 c -9.62,0 -17.42,7.821 -17.42,17.45 0,9.601 7.8,17.421 17.42,17.421 9.61,0 17.43,-7.82 17.43,-17.421 0,-9.629 -7.82,-17.45 -17.43,-17.45" /></clipPath><radialGradient
       id="radialGradient32"
       spreadMethod="pad"
       gradientTransform="matrix(4000,0,0,-4000,4000,4000)"
       gradientUnits="userSpaceOnUse"
       r="1"
       cy="0"
       cx="0"
       fy="0"
       fx="0"><stop
         id="stop24"
         offset="0"
         style="stop-opacity:1;stop-color:#f8f5f8" /><stop
         id="stop26"
         offset="0.601278"
         style="stop-opacity:1;stop-color:#f8f5f8" /><stop
         id="stop28"
         offset="0.910991"
         style="stop-opacity:1;stop-color:#eae4ef" /><stop
         id="stop30"
         offset="1"
         style="stop-opacity:1;stop-color:#eae4ef" /></radialGradient><clipPath
       id="clipPath64"
       clipPathUnits="userSpaceOnUse"><path
         id="path62"
         d="m 2897.17,169.121 c -3.54,0 -6.47,1.27 -8.79,3.828 -2.31,2.582 -3.46,6.231 -3.46,10.981 v 2.57 c -3.48,-3.98 -6.92,-7.238 -10.3,-9.719 -3.39,-2.519 -7.07,-4.422 -11.03,-5.711 -3.95,-1.32 -8.27,-1.949 -12.96,-1.949 -6.21,0 -11.95,1.309 -17.24,3.93 -5.28,2.629 -9.86,6.379 -13.72,11.269 -3.87,4.86 -6.79,10.578 -8.79,17.18 -1.99,6.59 -2.99,13.711 -2.99,21.371 0,16.211 3.96,28.848 11.87,37.91 7.92,9.039 18.34,13.571 31.26,13.571 7.46,0 13.77,-1.282 18.89,-3.84 5.13,-2.563 10.13,-6.532 15.01,-11.821 v 38.258 c 0,5.332 1.06,9.34 3.19,12.071 2.11,2.722 5.13,4.089 9.06,4.089 3.93,0 6.94,-1.25 9.07,-3.75 2.12,-2.519 3.18,-6.199 3.18,-11.078 V 183.93 c 0,-4.942 -1.13,-8.641 -3.41,-11.121 -2.29,-2.457 -5.22,-3.688 -8.84,-3.688 m -38.75,86.039 c -4.74,0 -8.99,-1.351 -12.73,-4.031 -3.73,-2.688 -6.63,-6.539 -8.68,-11.578 -2.07,-5.039 -3.09,-10.879 -3.09,-17.539 0,-7.032 1.09,-13.012 3.27,-17.953 2.19,-4.938 5.18,-8.649 8.98,-11.149 3.8,-2.5 7.95,-3.769 12.44,-3.769 4.56,0 8.72,1.191 12.49,3.57 3.77,2.371 6.78,6.019 9.02,10.918 2.25,4.91 3.37,11.062 3.37,18.383 0,6.918 -1.12,12.847 -3.37,17.828 -2.24,4.961 -5.28,8.75 -9.11,11.39 -3.84,2.622 -8.03,3.93 -12.59,3.93" /></clipPath><radialGradient
       id="radialGradient74"
       spreadMethod="pad"
       gradientTransform="matrix(4000,0,0,-4000,4000,4000)"
       gradientUnits="userSpaceOnUse"
       r="1"
       cy="0"
       cx="0"
       fy="0"
       fx="0"><stop
         id="stop66"
         offset="0"
         style="stop-opacity:1;stop-color:#80a2a7" /><stop
         id="stop68"
         offset="0.601278"
         style="stop-opacity:1;stop-color:#80a2a7" /><stop
         id="stop70"
         offset="0.910991"
         style="stop-opacity:1;stop-color:#7c9da4" /><stop
         id="stop72"
         offset="1"
         style="stop-opacity:1;stop-color:#7c9da4" /></radialGradient><clipPath
       id="clipPath84"
       clipPathUnits="userSpaceOnUse"><path
         id="path82"
         d="m 2974.75,169.121 c -16.64,0 -29.59,4.75 -38.84,14.238 -9.24,9.493 -13.86,22.379 -13.86,38.653 0,7.679 1.13,14.789 3.41,21.328 2.29,6.558 5.61,12.172 9.97,16.859 4.38,4.68 9.75,8.281 16.16,10.781 6.39,2.5 13.48,3.75 21.27,3.75 10.13,0 18.82,-2.128 26.06,-6.41 7.26,-4.281 12.7,-9.8 16.3,-16.558 3.6,-6.782 5.42,-13.692 5.42,-20.711 0,-6.539 -1.88,-10.762 -5.61,-12.692 -3.73,-1.929 -8.99,-2.91 -15.77,-2.91 h -50.71 c 0.06,-5.879 1.24,-11.07 3.56,-15.57 2.3,-4.488 5.38,-7.891 9.21,-10.149 3.83,-2.289 8.06,-3.421 12.68,-3.421 3.1,0 5.93,0.351 8.5,1.07 2.57,0.75 5.05,1.883 7.46,3.441 2.41,1.539 4.62,3.2 6.65,4.981 2.02,1.781 4.64,4.199 7.88,7.23 1.33,1.129 3.23,1.719 5.71,1.719 2.65,0 4.8,-0.75 6.44,-2.211 1.65,-1.461 2.48,-3.5 2.48,-6.168 0,-2.351 -0.93,-5.062 -2.75,-8.211 -1.85,-3.14 -4.62,-6.148 -8.32,-9.019 -3.71,-2.891 -8.35,-5.27 -13.97,-7.172 -5.59,-1.91 -12.04,-2.848 -19.33,-2.848 m -2.74,87.559 c -6.46,0 -11.77,-2.231 -15.91,-6.68 -4.15,-4.469 -6.66,-11.07 -7.55,-19.82 h 47.01 c -0.62,8.859 -3.03,15.5 -7.17,19.902 -4.15,4.406 -9.61,6.598 -16.38,6.598" /></clipPath><radialGradient
       id="radialGradient94"
       spreadMethod="pad"
       gradientTransform="matrix(4000,0,0,-4000,4000,4000)"
       gradientUnits="userSpaceOnUse"
       r="1"
       cy="0"
       cx="0"
       fy="0"
       fx="0"><stop
         id="stop86"
         offset="0"
         style="stop-opacity:1;stop-color:#80a2a7" /><stop
         id="stop88"
         offset="0.601278"
         style="stop-opacity:1;stop-color:#80a2a7" /><stop
         id="stop90"
         offset="0.910991"
         style="stop-opacity:1;stop-color:#7c9da4" /><stop
         id="stop92"
         offset="1"
         style="stop-opacity:1;stop-color:#7c9da4" /></radialGradient><clipPath
       id="clipPath104"
       clipPathUnits="userSpaceOnUse"><path
         id="path102"
         d="m 3071.91,169.121 c -9.3,0 -17.28,1.43 -23.93,4.281 -6.65,2.828 -11.56,6.399 -14.72,10.657 -3.17,4.3 -4.75,8.582 -4.75,12.89 0,2.86 1.01,5.281 3.04,7.313 2.02,2.008 4.59,3.027 7.7,3.027 2.71,0 4.8,-0.668 6.26,-2 1.46,-1.32 2.85,-3.199 4.17,-5.578 2.66,-4.652 5.85,-8.07 9.56,-10.371 3.7,-2.27 8.74,-3.418 15.15,-3.418 5.19,0 9.45,1.168 12.77,3.476 3.32,2.321 4.98,4.961 4.98,7.922 0,4.571 -1.72,7.879 -5.17,9.969 -3.45,2.082 -9.14,4.102 -17.05,5.992 -8.93,2.211 -16.19,4.551 -21.8,6.989 -5.61,2.421 -10.08,5.652 -13.44,9.628 -3.35,3.993 -5.03,8.911 -5.03,14.731 0,5.18 1.55,10.101 4.65,14.73 3.11,4.602 7.68,8.301 13.74,11.051 6.03,2.762 13.33,4.141 21.88,4.141 6.71,0 12.75,-0.699 18.09,-2.11 5.35,-1.371 9.83,-3.261 13.4,-5.601 3.58,-2.328 6.3,-4.93 8.16,-7.781 1.87,-2.848 2.8,-5.618 2.8,-8.36 0,-2.969 -1,-5.41 -2.98,-7.32 -2,-1.879 -4.83,-2.848 -8.51,-2.848 -2.66,0 -4.92,0.758 -6.79,2.301 -1.86,1.508 -4,3.789 -6.41,6.82 -1.96,2.539 -4.26,4.567 -6.93,6.086 -2.66,1.532 -6.27,2.274 -10.83,2.274 -4.69,0 -8.58,-0.981 -11.68,-2.992 -3.1,-1.989 -4.66,-4.469 -4.66,-7.438 0,-2.742 1.14,-4.961 3.42,-6.703 2.28,-1.758 5.35,-3.199 9.22,-4.34 3.86,-1.129 9.17,-2.519 15.96,-4.16 8.03,-1.969 14.6,-4.309 19.7,-7.027 5.09,-2.711 8.96,-5.942 11.6,-9.653 2.62,-3.711 3.93,-7.929 3.93,-12.668 0,-7.152 -1.74,-13.281 -5.23,-18.379 -3.47,-5.101 -8.62,-8.972 -15.43,-11.601 -6.8,-2.621 -15.09,-3.93 -24.84,-3.93" /></clipPath><radialGradient
       id="radialGradient114"
       spreadMethod="pad"
       gradientTransform="matrix(4000,0,0,-4000,4000,4000)"
       gradientUnits="userSpaceOnUse"
       r="1"
       cy="0"
       cx="0"
       fy="0"
       fx="0"><stop
         id="stop106"
         offset="0"
         style="stop-opacity:1;stop-color:#80a2a7" /><stop
         id="stop108"
         offset="0.601278"
         style="stop-opacity:1;stop-color:#80a2a7" /><stop
         id="stop110"
         offset="0.910991"
         style="stop-opacity:1;stop-color:#7c9da4" /><stop
         id="stop112"
         offset="1"
         style="stop-opacity:1;stop-color:#7c9da4" /></radialGradient><clipPath
       id="clipPath124"
       clipPathUnits="userSpaceOnUse"><path
         id="path122"
         d="m 3143.61,169.121 c -3.8,0 -6.89,1.348 -9.26,4.078 -2.38,2.723 -3.56,6.621 -3.56,11.68 v 74.18 c 0,5.121 1.18,8.992 3.56,11.582 2.37,2.597 5.46,3.91 9.26,3.91 3.81,0 6.93,-1.313 9.41,-3.91 2.47,-2.59 3.7,-6.211 3.7,-10.813 v -74.949 c 0,-5.188 -1.23,-9.117 -3.7,-11.77 -2.48,-2.66 -5.6,-3.988 -9.41,-3.988 m 0.29,117.481 c -3.61,0 -6.7,1.109 -9.26,3.32 -2.57,2.207 -3.85,5.348 -3.85,9.418 0,3.672 1.31,6.68 3.94,9.062 2.63,2.379 5.69,3.567 9.17,3.567 3.35,0 6.33,-1.067 8.92,-3.239 2.6,-2.148 3.9,-5.269 3.9,-9.39 0,-4.008 -1.27,-7.11 -3.81,-9.36 -2.52,-2.25 -5.53,-3.378 -9.01,-3.378" /></clipPath><radialGradient
       id="radialGradient134"
       spreadMethod="pad"
       gradientTransform="matrix(4000,0,0,-4000,4000,4000)"
       gradientUnits="userSpaceOnUse"
       r="1"
       cy="0"
       cx="0"
       fy="0"
       fx="0"><stop
         id="stop126"
         offset="0"
         style="stop-opacity:1;stop-color:#80a2a7" /><stop
         id="stop128"
         offset="0.601278"
         style="stop-opacity:1;stop-color:#80a2a7" /><stop
         id="stop130"
         offset="0.910991"
         style="stop-opacity:1;stop-color:#7c9da4" /><stop
         id="stop132"
         offset="1"
         style="stop-opacity:1;stop-color:#7c9da4" /></radialGradient><clipPath
       id="clipPath144"
       clipPathUnits="userSpaceOnUse"><path
         id="path142"
         d="m 3218.35,130.641 c -8.93,0 -16.91,1.257 -23.94,3.757 -7.02,2.512 -12.43,5.743 -16.24,9.684 -3.79,3.969 -5.7,8.027 -5.7,12.207 0,3.16 1.08,5.762 3.24,7.731 2.15,2.019 4.75,3.011 7.78,3.011 3.8,0 7.13,-1.679 9.98,-5.043 1.38,-1.699 2.82,-3.429 4.31,-5.168 1.49,-1.761 3.15,-3.25 4.94,-4.48 1.81,-1.231 3.98,-2.141 6.51,-2.75 2.53,-0.578 5.45,-0.899 8.74,-0.899 6.71,0 11.92,0.938 15.63,2.809 3.7,1.859 6.3,4.48 7.79,7.84 1.49,3.34 2.36,6.93 2.61,10.781 0.25,3.82 0.44,9.981 0.56,18.469 -3.99,-5.578 -8.58,-9.82 -13.82,-12.731 -5.22,-2.91 -11.44,-4.371 -18.66,-4.371 -8.67,0 -16.25,2.223 -22.75,6.653 -6.48,4.441 -11.47,10.629 -14.95,18.621 -3.49,7.988 -5.22,17.179 -5.22,27.636 0,7.774 1.05,14.821 3.17,21.071 2.13,6.293 5.16,11.562 9.08,15.883 3.92,4.296 8.45,7.539 13.58,9.718 5.12,2.192 10.76,3.282 16.9,3.282 7.34,0 13.71,-1.422 19.1,-4.211 5.37,-2.832 10.38,-7.25 15,-13.27 v 3.52 c 0,4.488 1.1,7.968 3.32,10.449 2.22,2.461 5.07,3.711 8.56,3.711 5,0 8.32,-1.641 9.96,-4.899 1.65,-3.261 2.48,-7.972 2.48,-14.101 V 180.23 c 0,-8.609 -0.93,-16.031 -2.77,-22.238 -1.82,-6.191 -4.77,-11.332 -8.82,-15.371 -4.06,-4.051 -9.36,-7.07 -15.91,-9.031 -6.55,-1.969 -14.71,-2.949 -24.46,-2.949 m 1.33,124.519 c -7.41,0 -13.35,-2.82 -17.8,-8.461 -4.47,-5.629 -6.7,-13.629 -6.7,-24.019 0,-10.508 2.29,-18.461 6.88,-23.828 4.59,-5.391 10.53,-8.09 17.81,-8.09 4.31,0 8.37,1.168 12.2,3.48 3.84,2.297 6.95,5.797 9.36,10.449 2.4,4.649 3.61,10.289 3.61,16.95 0,10.57 -2.32,18.808 -6.98,24.691 -4.66,5.879 -10.78,8.828 -18.38,8.828" /></clipPath><radialGradient
       id="radialGradient154"
       spreadMethod="pad"
       gradientTransform="matrix(4000,0,0,-4000,4000,4000)"
       gradientUnits="userSpaceOnUse"
       r="1"
       cy="0"
       cx="0"
       fy="0"
       fx="0"><stop
         id="stop146"
         offset="0"
         style="stop-opacity:1;stop-color:#80a2a7" /><stop
         id="stop148"
         offset="0.601278"
         style="stop-opacity:1;stop-color:#80a2a7" /><stop
         id="stop150"
         offset="0.910991"
         style="stop-opacity:1;stop-color:#7c9da4" /><stop
         id="stop152"
         offset="1"
         style="stop-opacity:1;stop-color:#7c9da4" /></radialGradient><clipPath
       id="clipPath164"
       clipPathUnits="userSpaceOnUse"><path
         id="path162"
         d="m 3366.8,169.121 c -3.87,0 -7,1.348 -9.41,4.078 -2.41,2.723 -3.61,6.621 -3.61,11.68 v 43.23 c 0,8.532 -1.19,15.071 -3.56,19.602 -2.38,4.519 -7.11,6.801 -14.2,6.801 -4.62,0 -8.83,-1.383 -12.63,-4.141 -3.8,-2.75 -6.59,-6.539 -8.36,-11.351 -1.27,-3.86 -1.9,-11.071 -1.9,-21.661 v -32.48 c 0,-5.25 -1.23,-9.199 -3.65,-11.828 -2.44,-2.621 -5.59,-3.93 -9.45,-3.93 -3.75,0 -6.81,1.348 -9.22,4.078 -2.4,2.723 -3.61,6.621 -3.61,11.68 v 74.949 c 0,4.942 1.08,8.633 3.23,11.074 2.15,2.418 5.1,3.649 8.83,3.649 2.28,0 4.34,-0.551 6.18,-1.621 1.83,-1.09 3.31,-2.692 4.42,-4.84 1.11,-2.149 1.66,-4.789 1.66,-7.891 v -3.129 c 4.55,6.02 9.54,10.43 14.95,13.239 5.42,2.812 11.64,4.242 18.67,4.242 6.84,0 12.95,-1.5 18.33,-4.469 5.38,-2.992 9.41,-7.191 12.06,-12.621 1.72,-3.18 2.82,-6.602 3.32,-10.27 0.51,-3.671 0.77,-8.359 0.77,-14.07 v -48.242 c 0,-5.188 -1.19,-9.117 -3.56,-11.77 -2.38,-2.66 -5.46,-3.988 -9.26,-3.988" /></clipPath><radialGradient
       id="radialGradient174"
       spreadMethod="pad"
       gradientTransform="matrix(4000,0,0,-4000,4000,4000)"
       gradientUnits="userSpaceOnUse"
       r="1"
       cy="0"
       cx="0"
       fy="0"
       fx="0"><stop
         id="stop166"
         offset="0"
         style="stop-opacity:1;stop-color:#80a2a7" /><stop
         id="stop168"
         offset="0.601278"
         style="stop-opacity:1;stop-color:#80a2a7" /><stop
         id="stop170"
         offset="0.910991"
         style="stop-opacity:1;stop-color:#7c9da4" /><stop
         id="stop172"
         offset="1"
         style="stop-opacity:1;stop-color:#7c9da4" /></radialGradient><clipPath
       id="clipPath184"
       clipPathUnits="userSpaceOnUse"><path
         id="path182"
         d="m 3444.76,169.121 c -16.65,0 -29.6,4.75 -38.85,14.238 -9.23,9.493 -13.87,22.379 -13.87,38.653 0,7.679 1.15,14.789 3.42,21.328 2.28,6.558 5.61,12.172 9.99,16.859 4.36,4.68 9.74,8.281 16.14,10.781 6.39,2.5 13.49,3.75 21.28,3.75 10.12,0 18.81,-2.128 26.06,-6.41 7.25,-4.281 12.68,-9.8 16.3,-16.558 3.6,-6.782 5.41,-13.692 5.41,-20.711 0,-6.539 -1.87,-10.762 -5.61,-12.692 -3.73,-1.929 -8.99,-2.91 -15.77,-2.91 h -50.71 c 0.07,-5.879 1.24,-11.07 3.56,-15.57 2.31,-4.488 5.38,-7.891 9.22,-10.149 3.82,-2.289 8.05,-3.421 12.67,-3.421 3.1,0 5.94,0.351 8.51,1.07 2.55,0.75 5.04,1.883 7.46,3.441 2.39,1.539 4.61,3.2 6.65,4.981 2.01,1.781 4.64,4.199 7.87,7.23 1.33,1.129 3.23,1.719 5.7,1.719 2.66,0 4.82,-0.75 6.46,-2.211 1.65,-1.461 2.47,-3.5 2.47,-6.168 0,-2.351 -0.92,-5.062 -2.76,-8.211 -1.84,-3.14 -4.61,-6.148 -8.31,-9.019 -3.71,-2.891 -8.35,-5.27 -13.96,-7.172 -5.6,-1.91 -12.05,-2.848 -19.33,-2.848 m -2.75,87.559 c -6.46,0 -11.77,-2.231 -15.92,-6.68 -4.15,-4.469 -6.65,-11.07 -7.54,-19.82 h 47.01 c -0.63,8.859 -3.02,15.5 -7.17,19.902 -4.15,4.406 -9.61,6.598 -16.38,6.598" /></clipPath><radialGradient
       id="radialGradient194"
       spreadMethod="pad"
       gradientTransform="matrix(4000,0,0,-4000,4000,4000)"
       gradientUnits="userSpaceOnUse"
       r="1"
       cy="0"
       cx="0"
       fy="0"
       fx="0"><stop
         id="stop186"
         offset="0"
         style="stop-opacity:1;stop-color:#80a2a7" /><stop
         id="stop188"
         offset="0.601278"
         style="stop-opacity:1;stop-color:#80a2a7" /><stop
         id="stop190"
         offset="0.910991"
         style="stop-opacity:1;stop-color:#7c9da4" /><stop
         id="stop192"
         offset="1"
         style="stop-opacity:1;stop-color:#7c9da4" /></radialGradient><clipPath
       id="clipPath204"
       clipPathUnits="userSpaceOnUse"><path
         id="path202"
         d="m 3587.22,169.121 c -3.54,0 -6.47,1.27 -8.79,3.828 -2.31,2.582 -3.47,6.231 -3.47,10.981 v 2.57 c -3.48,-3.98 -6.91,-7.238 -10.3,-9.719 -3.39,-2.519 -7.06,-4.422 -11.02,-5.711 -3.95,-1.32 -8.27,-1.949 -12.96,-1.949 -6.21,0 -11.95,1.309 -17.24,3.93 -5.29,2.629 -9.86,6.379 -13.72,11.269 -3.87,4.86 -6.79,10.578 -8.79,17.18 -1.99,6.59 -2.99,13.711 -2.99,21.371 0,16.211 3.95,28.848 11.87,37.91 7.92,9.039 18.33,13.571 31.25,13.571 7.47,0 13.77,-1.282 18.9,-3.84 5.13,-2.563 10.13,-6.532 15,-11.821 v 38.258 c 0,5.332 1.06,9.34 3.19,12.071 2.11,2.722 5.15,4.089 9.07,4.089 3.92,0 6.95,-1.25 9.07,-3.75 2.12,-2.519 3.18,-6.199 3.18,-11.078 V 183.93 c 0,-4.942 -1.14,-8.641 -3.42,-11.121 -2.28,-2.457 -5.22,-3.688 -8.83,-3.688 m -38.76,86.039 c -4.74,0 -8.99,-1.351 -12.72,-4.031 -3.73,-2.688 -6.63,-6.539 -8.69,-11.578 -2.06,-5.039 -3.09,-10.879 -3.09,-17.539 0,-7.032 1.09,-13.012 3.28,-17.953 2.18,-4.938 5.17,-8.649 8.98,-11.149 3.79,-2.5 7.94,-3.769 12.43,-3.769 4.57,0 8.73,1.191 12.49,3.57 3.77,2.371 6.79,6.019 9.03,10.918 2.25,4.91 3.37,11.062 3.37,18.383 0,6.918 -1.12,12.847 -3.37,17.828 -2.24,4.961 -5.29,8.75 -9.12,11.39 -3.84,2.622 -8.03,3.93 -12.59,3.93" /></clipPath><radialGradient
       id="radialGradient214"
       spreadMethod="pad"
       gradientTransform="matrix(4000,0,0,-4000,4000,4000)"
       gradientUnits="userSpaceOnUse"
       r="1"
       cy="0"
       cx="0"
       fy="0"
       fx="0"><stop
         id="stop206"
         offset="0"
         style="stop-opacity:1;stop-color:#80a2a7" /><stop
         id="stop208"
         offset="0.601278"
         style="stop-opacity:1;stop-color:#80a2a7" /><stop
         id="stop210"
         offset="0.910991"
         style="stop-opacity:1;stop-color:#7c9da4" /><stop
         id="stop212"
         offset="1"
         style="stop-opacity:1;stop-color:#7c9da4" /></radialGradient><clipPath
       id="clipPath224"
       clipPathUnits="userSpaceOnUse"><path
         id="path222"
         d="m 3714.38,169.121 c -4,0 -7.75,0.469 -11.25,1.43 -3.53,0.937 -6.52,2.179 -8.99,3.75 -2.45,1.539 -4.57,3.14 -6.31,4.781 -1.74,1.637 -4.04,4.117 -6.89,7.418 v -2.57 c 0,-4.871 -1.17,-8.559 -3.51,-11.078 -2.34,-2.5 -5.32,-3.731 -8.93,-3.731 -3.67,0 -6.6,1.231 -8.78,3.731 -2.19,2.519 -3.28,6.207 -3.28,11.078 v 113.222 c 0,5.246 1.06,9.239 3.17,11.907 2.13,2.703 5.1,4.05 8.89,4.05 4,0 7.06,-1.289 9.21,-3.847 2.15,-2.582 3.23,-6.211 3.23,-10.981 v -39.59 c 4.88,5.059 9.85,8.95 14.92,11.618 5.06,2.703 11.33,4.043 18.8,4.043 8.62,0 16.16,-2.051 22.66,-6.114 6.48,-4.097 11.51,-10.019 15.1,-17.769 3.57,-7.75 5.37,-16.949 5.37,-27.598 0,-7.851 -1,-15.039 -3,-21.601 -1.99,-6.559 -4.89,-12.25 -8.69,-17.051 -3.8,-4.809 -8.4,-8.539 -13.82,-11.168 -5.41,-2.621 -11.38,-3.93 -17.9,-3.93 m -6.56,86.039 c -4.94,0 -9.34,-1.351 -13.2,-4.031 -3.86,-2.688 -6.9,-6.578 -9.12,-11.68 -2.21,-5.09 -3.32,-11.168 -3.32,-18.199 0,-10.309 2.36,-18.238 7.07,-23.77 4.72,-5.55 10.91,-8.339 18.57,-8.339 6.52,0 12.15,2.828 16.86,8.519 4.71,5.66 7.07,13.789 7.07,24.352 0,6.84 -0.97,12.738 -2.94,17.679 -1.96,4.938 -4.74,8.75 -8.35,11.438 -3.61,2.68 -7.83,4.031 -12.64,4.031" /></clipPath><radialGradient
       id="radialGradient234"
       spreadMethod="pad"
       gradientTransform="matrix(4000,0,0,-4000,4000,4000)"
       gradientUnits="userSpaceOnUse"
       r="1"
       cy="0"
       cx="0"
       fy="0"
       fx="0"><stop
         id="stop226"
         offset="0"
         style="stop-opacity:1;stop-color:#80a2a7" /><stop
         id="stop228"
         offset="0.601278"
         style="stop-opacity:1;stop-color:#80a2a7" /><stop
         id="stop230"
         offset="0.910991"
         style="stop-opacity:1;stop-color:#7c9da4" /><stop
         id="stop232"
         offset="1"
         style="stop-opacity:1;stop-color:#7c9da4" /></radialGradient><clipPath
       id="clipPath244"
       clipPathUnits="userSpaceOnUse"><path
         id="path242"
         d="m 3778.76,130.641 c -7.59,0 -13.29,0.82 -17.08,2.468 -3.81,1.661 -5.7,4.661 -5.7,9.043 0,2.969 0.89,5.27 2.71,6.868 1.79,1.628 4.47,2.441 8.01,2.441 1.4,0 2.76,-0.191 4.09,-0.582 1.65,-0.367 3.07,-0.57 4.27,-0.57 2.97,0 5.32,0.429 7.03,1.332 1.71,0.879 3.24,2.418 4.61,4.609 1.36,2.172 2.93,5.391 4.7,9.629 l 2.37,5.801 -31.91,80.351 c -1.96,4.61 -2.95,7.989 -2.95,10.078 0,2.211 0.58,4.262 1.72,6.153 1.14,1.918 2.7,3.437 4.69,4.57 2,1.148 4.07,1.719 6.23,1.719 3.73,0 6.54,-1.192 8.46,-3.571 1.9,-2.371 3.57,-5.769 5.02,-10.199 l 21.95,-63.832 20.8,59.36 c 1.64,4.8 3.13,8.57 4.46,11.312 1.33,2.711 2.74,4.551 4.22,5.488 1.49,0.95 3.6,1.442 6.32,1.442 1.97,0 3.85,-0.531 5.66,-1.582 1.8,-1.039 3.19,-2.438 4.17,-4.219 0.98,-1.781 1.48,-3.629 1.48,-5.602 -0.26,-1.199 -0.66,-2.918 -1.24,-5.136 -0.57,-2.211 -1.26,-4.481 -2.08,-6.742 l -33.82,-88.52 c -2.92,-7.789 -5.76,-13.879 -8.55,-18.32 -2.79,-4.43 -6.47,-7.848 -11.07,-10.211 -4.59,-2.379 -10.78,-3.578 -18.57,-3.578" /></clipPath><radialGradient
       id="radialGradient254"
       spreadMethod="pad"
       gradientTransform="matrix(4000,0,0,-4000,4000,4000)"
       gradientUnits="userSpaceOnUse"
       r="1"
       cy="0"
       cx="0"
       fy="0"
       fx="0"><stop
         id="stop246"
         offset="0"
         style="stop-opacity:1;stop-color:#80a2a7" /><stop
         id="stop248"
         offset="0.601278"
         style="stop-opacity:1;stop-color:#80a2a7" /><stop
         id="stop250"
         offset="0.910991"
         style="stop-opacity:1;stop-color:#7c9da4" /><stop
         id="stop252"
         offset="1"
         style="stop-opacity:1;stop-color:#7c9da4" /></radialGradient><clipPath
       id="clipPath264"
       clipPathUnits="userSpaceOnUse"><path
         id="path262"
         d="m 4186.04,169.141 c -3.68,0 -6.71,1.328 -9.18,4.058 -2.45,2.68 -3.65,6.571 -3.65,11.68 v 68.711 h -7.14 c -3.88,0 -6.82,0.84 -8.93,2.621 -2.09,1.699 -3.15,3.988 -3.15,6.781 0,6.227 4.35,9.309 13.04,9.309 h 6.18 v 7.781 c 0,8.137 1,14.57 3.07,19.367 2.04,4.793 5.56,8.27 10.47,10.449 4.9,2.172 11.63,3.262 20.16,3.262 15.2,0 22.73,-3.672 22.73,-11.129 0,-2.379 -0.79,-4.449 -2.4,-6.152 -1.55,-1.699 -3.43,-2.559 -5.58,-2.559 -1,0 -2.78,0.18 -5.27,0.59 -2.38,0.332 -4.53,0.559 -6.23,0.559 -4.68,0 -7.67,-1.399 -9.06,-4.16 -1.27,-2.75 -1.95,-6.68 -1.95,-11.829 v -6.179 h 6.33 c 9.91,0 14.81,-2.961 14.81,-8.961 0,-4.18 -1.27,-6.891 -3.92,-8.051 -2.62,-1.129 -6.24,-1.699 -10.89,-1.699 h -6.33 v -68.711 c 0,-5.109 -1.2,-9 -3.69,-11.68 -2.41,-2.73 -5.54,-4.058 -9.42,-4.058" /></clipPath><radialGradient
       id="radialGradient274"
       spreadMethod="pad"
       gradientTransform="matrix(4000,0,0,-4000,4000,4000)"
       gradientUnits="userSpaceOnUse"
       r="1"
       cy="0"
       cx="0"
       fy="0"
       fx="0"><stop
         id="stop266"
         offset="0"
         style="stop-opacity:1;stop-color:#80a2a7" /><stop
         id="stop268"
         offset="0.601278"
         style="stop-opacity:1;stop-color:#80a2a7" /><stop
         id="stop270"
         offset="0.910991"
         style="stop-opacity:1;stop-color:#7c9da4" /><stop
         id="stop272"
         offset="1"
         style="stop-opacity:1;stop-color:#7c9da4" /></radialGradient><clipPath
       id="clipPath284"
       clipPathUnits="userSpaceOnUse"><path
         id="path282"
         d="m 4238.81,169.141 c -3.82,0 -6.88,1.308 -9.27,4.007 -2.36,2.633 -3.6,6.563 -3.6,11.731 v 72.23 c 0,11.661 4.2,17.481 12.61,17.481 4.33,0 7.43,-1.352 9.33,-4.078 1.89,-2.742 2.95,-6.742 3.17,-12.071 3.08,5.329 6.24,9.329 9.49,12.071 3.32,2.726 7.62,4.078 13.09,4.078 5.49,0 10.73,-1.352 15.85,-4.078 5.16,-2.742 7.72,-6.371 7.72,-10.84 0,-3.152 -1.11,-5.801 -3.26,-7.813 -2.2,-2.089 -4.55,-3.129 -7.07,-3.129 -0.99,0 -3.31,0.622 -6.92,1.801 -3.65,1.129 -6.88,1.739 -9.63,1.739 -3.8,0 -6.92,-1.04 -9.31,-2.989 -2.43,-2.051 -4.31,-4.961 -5.65,-8.871 -1.29,-3.941 -2.19,-8.648 -2.72,-14.039 -0.49,-5.41 -0.72,-12.031 -0.72,-19.812 v -21.68 c 0,-5.227 -1.32,-9.199 -3.74,-11.789 -2.47,-2.66 -5.58,-3.949 -9.37,-3.949" /></clipPath><radialGradient
       id="radialGradient294"
       spreadMethod="pad"
       gradientTransform="matrix(4000,0,0,-4000,4000,4000)"
       gradientUnits="userSpaceOnUse"
       r="1"
       cy="0"
       cx="0"
       fy="0"
       fx="0"><stop
         id="stop286"
         offset="0"
         style="stop-opacity:1;stop-color:#80a2a7" /><stop
         id="stop288"
         offset="0.601278"
         style="stop-opacity:1;stop-color:#80a2a7" /><stop
         id="stop290"
         offset="0.910991"
         style="stop-opacity:1;stop-color:#7c9da4" /><stop
         id="stop292"
         offset="1"
         style="stop-opacity:1;stop-color:#7c9da4" /></radialGradient><clipPath
       id="clipPath304"
       clipPathUnits="userSpaceOnUse"><path
         id="path302"
         d="m 4346.64,169.141 c -16.71,0 -29.64,4.73 -38.87,14.218 -9.24,9.512 -13.91,22.422 -13.91,38.672 0,7.68 1.17,14.789 3.47,21.348 2.25,6.582 5.58,12.172 9.99,16.871 4.36,4.711 9.7,8.289 16.13,10.789 6.38,2.5 13.46,3.75 21.28,3.75 10.1,0 18.8,-2.148 26.06,-6.469 7.24,-4.218 12.74,-9.761 16.29,-16.539 3.61,-6.801 5.42,-13.672 5.42,-20.742 0,-6.488 -1.88,-10.707 -5.62,-12.66 -3.73,-1.93 -8.97,-2.887 -15.75,-2.887 h -50.74 c 0.09,-5.883 1.24,-11.113 3.54,-15.594 2.36,-4.468 5.41,-7.867 9.25,-10.168 3.85,-2.269 8.04,-3.398 12.69,-3.398 3.1,0 5.93,0.328 8.49,1.109 2.54,0.7 5.05,1.86 7.46,3.418 2.42,1.52 4.6,3.18 6.64,5 2.02,1.743 4.67,4.161 7.9,7.192 1.34,1.129 3.24,1.73 5.68,1.73 2.69,0 4.81,-0.742 6.49,-2.222 1.67,-1.469 2.44,-3.5 2.44,-6.168 0,-2.352 -0.89,-5.082 -2.68,-8.192 -1.87,-3.179 -4.63,-6.168 -8.36,-9.058 -3.74,-2.852 -8.39,-5.27 -13.97,-7.153 -5.6,-1.886 -12.06,-2.847 -19.32,-2.847 m -2.78,87.558 c -6.46,0 -11.77,-2.211 -15.92,-6.699 -4.14,-4.449 -6.68,-11.039 -7.55,-19.77 h 47.01 c -0.62,8.852 -2.98,15.489 -7.14,19.872 -4.18,4.41 -9.59,6.597 -16.4,6.597" /></clipPath><radialGradient
       id="radialGradient314"
       spreadMethod="pad"
       gradientTransform="matrix(4000,0,0,-4000,4000,4000)"
       gradientUnits="userSpaceOnUse"
       r="1"
       cy="0"
       cx="0"
       fy="0"
       fx="0"><stop
         id="stop306"
         offset="0"
         style="stop-opacity:1;stop-color:#80a2a7" /><stop
         id="stop308"
         offset="0.601278"
         style="stop-opacity:1;stop-color:#80a2a7" /><stop
         id="stop310"
         offset="0.910991"
         style="stop-opacity:1;stop-color:#7c9da4" /><stop
         id="stop312"
         offset="1"
         style="stop-opacity:1;stop-color:#7c9da4" /></radialGradient><clipPath
       id="clipPath324"
       clipPathUnits="userSpaceOnUse"><path
         id="path322"
         d="m 4454.46,169.141 c -16.67,0 -29.59,4.73 -38.86,14.218 -9.24,9.512 -13.89,22.422 -13.89,38.672 0,7.68 1.16,14.789 3.48,21.348 2.26,6.582 5.58,12.172 9.96,16.871 4.35,4.711 9.72,8.289 16.14,10.789 6.38,2.5 13.5,3.75 21.29,3.75 10.09,0 18.78,-2.148 26.13,-6.469 7.2,-4.218 12.66,-9.761 16.21,-16.539 3.6,-6.801 5.45,-13.672 5.45,-20.742 0,-6.488 -1.91,-10.707 -5.62,-12.66 -3.74,-1.93 -8.99,-2.887 -15.75,-2.887 h -50.73 c 0.06,-5.883 1.25,-11.113 3.55,-15.594 2.31,-4.468 5.39,-7.867 9.21,-10.168 3.82,-2.269 8.05,-3.398 12.71,-3.398 3.08,0 5.93,0.328 8.45,1.109 2.59,0.7 5.06,1.86 7.5,3.418 2.42,1.52 4.6,3.18 6.64,5 1.99,1.743 4.64,4.161 7.88,7.192 1.35,1.129 3.26,1.73 5.68,1.73 2.69,0 4.84,-0.742 6.51,-2.222 1.65,-1.469 2.4,-3.5 2.4,-6.168 0,-2.352 -0.87,-5.082 -2.74,-8.192 -1.76,-3.179 -4.55,-6.168 -8.3,-9.058 -3.7,-2.852 -8.39,-5.27 -13.95,-7.153 -5.58,-1.886 -12.08,-2.847 -19.35,-2.847 m -2.75,87.558 c -6.46,0 -11.76,-2.211 -15.93,-6.699 -4.13,-4.449 -6.67,-11.039 -7.51,-19.77 h 47.01 c -0.63,8.852 -3.03,15.489 -7.15,19.872 -4.21,4.41 -9.61,6.597 -16.42,6.597" /></clipPath><radialGradient
       id="radialGradient334"
       spreadMethod="pad"
       gradientTransform="matrix(4000,0,0,-4000,4000,4000)"
       gradientUnits="userSpaceOnUse"
       r="1"
       cy="0"
       cx="0"
       fy="0"
       fx="0"><stop
         id="stop326"
         offset="0"
         style="stop-opacity:1;stop-color:#80a2a7" /><stop
         id="stop328"
         offset="0.601278"
         style="stop-opacity:1;stop-color:#80a2a7" /><stop
         id="stop330"
         offset="0.910991"
         style="stop-opacity:1;stop-color:#7c9da4" /><stop
         id="stop332"
         offset="1"
         style="stop-opacity:1;stop-color:#7c9da4" /></radialGradient><clipPath
       id="clipPath344"
       clipPathUnits="userSpaceOnUse"><path
         id="path342"
         d="m 4523.36,130.641 c -4.9,0 -8.09,1.468 -9.72,4.398 -1.51,2.992 -2.33,7.231 -2.33,12.91 v 111.93 c 0,4.941 1.06,8.601 3.2,11.082 2.15,2.379 5.12,3.629 8.85,3.629 3.69,0 6.66,-1.25 8.95,-3.731 2.36,-2.539 3.49,-6.109 3.49,-10.859 v -3.102 c 4.86,6.012 9.94,10.43 15.25,13.243 5.18,2.851 11.18,4.269 17.82,4.269 7.95,0 15.35,-2.09 22.07,-6.172 6.71,-4.136 11.98,-10.148 15.89,-18.058 3.89,-7.95 5.85,-17.309 5.85,-28.149 0,-7.949 -1.12,-15.312 -3.35,-22.011 -2.24,-6.68 -5.38,-12.27 -9.29,-16.801 -3.94,-4.489 -8.56,-8.008 -13.9,-10.449 -5.42,-2.418 -11.11,-3.629 -17.27,-3.629 -7.39,0 -13.65,1.488 -18.66,4.468 -5.02,2.911 -9.82,7.332 -14.41,13.051 v -38.93 c 0,-11.339 -4.16,-17.089 -12.44,-17.089 m 39.15,124.55 c -7.14,0 -13.18,-2.832 -18.09,-8.429 -4.92,-5.672 -7.39,-13.953 -7.39,-24.922 0,-10.281 2.44,-18.34 7.35,-24.07 4.88,-5.739 10.86,-8.59 18.13,-8.59 4.29,0 8.3,1.269 11.97,3.73 3.71,2.52 6.65,6.27 8.84,11.27 2.21,5.019 3.32,11.07 3.32,18.14 0,6.86 -1.06,12.739 -3.14,17.641 -2.09,4.918 -4.99,8.668 -8.67,11.269 -3.67,2.641 -7.82,3.961 -12.32,3.961" /></clipPath><radialGradient
       id="radialGradient354"
       spreadMethod="pad"
       gradientTransform="matrix(4000,0,0,-4000,4000,4000)"
       gradientUnits="userSpaceOnUse"
       r="1"
       cy="0"
       cx="0"
       fy="0"
       fx="0"><stop
         id="stop346"
         offset="0"
         style="stop-opacity:1;stop-color:#80a2a7" /><stop
         id="stop348"
         offset="0.601278"
         style="stop-opacity:1;stop-color:#80a2a7" /><stop
         id="stop350"
         offset="0.910991"
         style="stop-opacity:1;stop-color:#7c9da4" /><stop
         id="stop352"
         offset="1"
         style="stop-opacity:1;stop-color:#7c9da4" /></radialGradient><clipPath
       id="clipPath364"
       clipPathUnits="userSpaceOnUse"><path
         id="path362"
         d="m 4638.53,169.141 c -3.81,0 -6.85,1.328 -9.28,4.058 -2.34,2.762 -3.56,6.641 -3.56,11.66 v 74.282 c 0,5.101 1.22,8.949 3.56,11.539 2.43,2.64 5.47,3.91 9.28,3.91 3.8,0 6.91,-1.27 9.41,-3.91 2.46,-2.59 3.7,-6.231 3.7,-10.801 v -75.02 c 0,-5.148 -1.24,-9.078 -3.7,-11.711 -2.5,-2.699 -5.61,-4.007 -9.41,-4.007 m 0.27,117.519 c -3.62,0 -6.69,1.149 -9.23,3.36 -2.6,2.23 -3.88,5.312 -3.88,9.351 0,3.699 1.31,6.699 3.97,9.109 2.62,2.34 5.66,3.551 9.14,3.551 3.4,0 6.36,-1.051 8.93,-3.179 2.6,-2.192 3.91,-5.352 3.91,-9.481 0,-3.98 -1.27,-7.101 -3.78,-9.351 -2.54,-2.211 -5.55,-3.36 -9.06,-3.36" /></clipPath><radialGradient
       id="radialGradient374"
       spreadMethod="pad"
       gradientTransform="matrix(4000,0,0,-4000,4000,4000)"
       gradientUnits="userSpaceOnUse"
       r="1"
       cy="0"
       cx="0"
       fy="0"
       fx="0"><stop
         id="stop366"
         offset="0"
         style="stop-opacity:1;stop-color:#80a2a7" /><stop
         id="stop368"
         offset="0.601278"
         style="stop-opacity:1;stop-color:#80a2a7" /><stop
         id="stop370"
         offset="0.910991"
         style="stop-opacity:1;stop-color:#7c9da4" /><stop
         id="stop372"
         offset="1"
         style="stop-opacity:1;stop-color:#7c9da4" /></radialGradient><clipPath
       id="clipPath384"
       clipPathUnits="userSpaceOnUse"><path
         id="path382"
         d="m 4749.54,169.141 c -3.16,0 -5.63,0.8 -7.33,2.558 -1.7,1.723 -4.08,4.821 -6.98,9.281 l -22.84,37.649 -14.08,-13.277 v -20.661 c 0,-4.98 -1.33,-8.812 -3.96,-11.492 -2.57,-2.73 -5.67,-4.058 -9.07,-4.058 -3.98,0 -7.14,1.308 -9.4,4.007 -2.27,2.633 -3.44,6.563 -3.44,11.731 v 110.633 c 0,5.738 1.14,10.117 3.31,13.136 2.23,3.051 5.45,4.512 9.53,4.512 4,0 7.13,-1.359 9.5,-4.101 2.34,-2.707 3.53,-6.739 3.53,-12.028 v -62.929 l 29.16,30.628 c 3.62,3.77 6.33,6.399 8.27,7.79 1.9,1.39 4.19,2.07 6.9,2.07 3.26,0 5.94,-1.031 8.15,-3.078 2.11,-2.063 3.2,-4.653 3.2,-7.742 0,-3.79 -3.53,-8.891 -10.54,-15.211 l -13.77,-12.618 26.59,-41.839 c 1.93,-3.122 3.39,-5.43 4.24,-7.051 0.84,-1.602 1.3,-3.199 1.3,-4.629 0,-4.121 -1.15,-7.34 -3.41,-9.742 -2.25,-2.371 -5.24,-3.539 -8.86,-3.539" /></clipPath><radialGradient
       id="radialGradient394"
       spreadMethod="pad"
       gradientTransform="matrix(4000,0,0,-4000,4000,4000)"
       gradientUnits="userSpaceOnUse"
       r="1"
       cy="0"
       cx="0"
       fy="0"
       fx="0"><stop
         id="stop386"
         offset="0"
         style="stop-opacity:1;stop-color:#80a2a7" /><stop
         id="stop388"
         offset="0.601278"
         style="stop-opacity:1;stop-color:#80a2a7" /><stop
         id="stop390"
         offset="0.910991"
         style="stop-opacity:1;stop-color:#7c9da4" /><stop
         id="stop392"
         offset="1"
         style="stop-opacity:1;stop-color:#7c9da4" /></radialGradient><clipPath
       id="clipPath404"
       clipPathUnits="userSpaceOnUse"><path
         id="path402"
         d="m 4791.59,169.141 c -3.91,0 -7.27,1.25 -10.13,3.808 -2.85,2.481 -4.29,6.051 -4.29,10.641 0,3.851 1.38,7.191 4.1,9.949 2.74,2.793 6.07,4.191 10.08,4.191 3.97,0 7.35,-1.398 10.22,-4.121 2.79,-2.75 4.22,-6.129 4.22,-10.019 0,-4.531 -1.43,-8.078 -4.22,-10.598 -2.87,-2.601 -6.19,-3.851 -9.98,-3.851" /></clipPath><radialGradient
       id="radialGradient414"
       spreadMethod="pad"
       gradientTransform="matrix(4000,0,0,-4000,4000,4000)"
       gradientUnits="userSpaceOnUse"
       r="1"
       cy="0"
       cx="0"
       fy="0"
       fx="0"><stop
         id="stop406"
         offset="0"
         style="stop-opacity:1;stop-color:#80a2a7" /><stop
         id="stop408"
         offset="0.601278"
         style="stop-opacity:1;stop-color:#80a2a7" /><stop
         id="stop410"
         offset="0.910991"
         style="stop-opacity:1;stop-color:#7c9da4" /><stop
         id="stop412"
         offset="1"
         style="stop-opacity:1;stop-color:#7c9da4" /></radialGradient><clipPath
       id="clipPath424"
       clipPathUnits="userSpaceOnUse"><path
         id="path422"
         d="m 4873.55,169.301 c -16.06,0 -28.58,4.679 -37.57,14 -8.96,9.359 -13.46,21.898 -13.46,37.601 0,10.68 2.04,20.059 6.19,28.239 4.07,8.148 10.04,14.468 17.81,18.949 7.8,4.469 17.16,6.699 27.94,6.699 6.74,0 12.88,-0.98 18.53,-2.949 5.6,-1.961 10.32,-4.512 14.25,-7.598 3.86,-3.152 6.85,-6.433 8.89,-9.922 2.07,-3.519 3.08,-6.8 3.08,-9.871 0,-3.078 -1.13,-5.719 -3.43,-7.867 -2.35,-2.152 -5.16,-3.242 -8.39,-3.242 -2.18,0 -3.97,0.57 -5.41,1.66 -1.43,1.109 -3.05,2.891 -4.78,5.41 -3.18,4.789 -6.47,8.422 -9.96,10.801 -3.43,2.418 -7.81,3.609 -13.14,3.609 -7.62,0 -13.84,-2.961 -18.53,-8.961 -4.68,-5.961 -7.04,-14.199 -7.04,-24.55 0,-4.879 0.63,-9.399 1.83,-13.477 1.17,-4.062 2.91,-7.562 5.21,-10.434 2.3,-2.867 5.03,-5.058 8.26,-6.539 3.24,-1.539 6.8,-2.269 10.63,-2.269 5.22,0 9.67,1.211 13.37,3.621 3.76,2.398 7.02,6.07 9.87,11.008 1.58,2.91 3.27,5.183 5.08,6.84 1.83,1.64 4.1,2.5 6.76,2.5 3.17,0 5.8,-1.227 7.86,-3.629 2.11,-2.41 3.18,-4.981 3.18,-7.7 0,-3.199 -0.97,-6.679 -2.91,-10.328 -1.92,-3.711 -4.89,-7.191 -8.86,-10.511 -3.95,-3.321 -8.92,-6.02 -14.95,-8.032 -6.01,-2.027 -12.81,-3.058 -20.31,-3.058" /></clipPath><radialGradient
       id="radialGradient434"
       spreadMethod="pad"
       gradientTransform="matrix(4000,0,0,-4000,4000,4000)"
       gradientUnits="userSpaceOnUse"
       r="1"
       cy="0"
       cx="0"
       fy="0"
       fx="0"><stop
         id="stop426"
         offset="0"
         style="stop-opacity:1;stop-color:#80a2a7" /><stop
         id="stop428"
         offset="0.601278"
         style="stop-opacity:1;stop-color:#80a2a7" /><stop
         id="stop430"
         offset="0.910991"
         style="stop-opacity:1;stop-color:#7c9da4" /><stop
         id="stop432"
         offset="1"
         style="stop-opacity:1;stop-color:#7c9da4" /></radialGradient><clipPath
       id="clipPath444"
       clipPathUnits="userSpaceOnUse"><path
         id="path442"
         d="m 4980.72,169.121 c -7.85,0 -14.93,1.27 -21.21,3.828 -6.23,2.481 -11.71,6.133 -16.26,10.821 -4.61,4.761 -8.08,10.332 -10.52,16.761 -2.29,6.438 -3.5,13.551 -3.5,21.309 0,7.871 1.24,15.051 3.58,21.582 2.42,6.539 5.89,12.129 10.39,16.738 4.52,4.61 9.93,8.16 16.31,10.699 6.44,2.481 13.5,3.731 21.21,3.731 7.84,0 14.98,-1.25 21.39,-3.809 6.38,-2.519 11.82,-6.152 16.44,-10.801 4.58,-4.75 8.02,-10.289 10.4,-16.718 2.33,-6.5 3.53,-13.59 3.53,-21.422 0,-7.699 -1.22,-14.852 -3.55,-21.391 -2.48,-6.519 -5.92,-12.129 -10.5,-16.777 -4.55,-4.684 -10.02,-8.281 -16.32,-10.801 -6.4,-2.48 -13.5,-3.75 -21.39,-3.75 m 0,86.289 c -5.07,0 -9.55,-1.328 -13.42,-3.941 -3.87,-2.617 -6.81,-6.489 -8.9,-11.649 -2.09,-5.129 -3.16,-11.129 -3.16,-17.98 0,-6.781 1.03,-12.68 3.1,-17.738 2.08,-5.102 5.02,-8.961 8.86,-11.661 3.85,-2.652 8.35,-4.039 13.52,-4.039 7.84,0 14.11,2.969 18.74,8.918 4.64,5.899 6.98,14.11 6.98,24.52 0,10.582 -2.34,18.808 -6.98,24.68 -4.63,5.96 -10.9,8.89 -18.74,8.89" /></clipPath><radialGradient
       id="radialGradient454"
       spreadMethod="pad"
       gradientTransform="matrix(4000,0,0,-4000,4000,4000)"
       gradientUnits="userSpaceOnUse"
       r="1"
       cy="0"
       cx="0"
       fy="0"
       fx="0"><stop
         id="stop446"
         offset="0"
         style="stop-opacity:1;stop-color:#80a2a7" /><stop
         id="stop448"
         offset="0.601278"
         style="stop-opacity:1;stop-color:#80a2a7" /><stop
         id="stop450"
         offset="0.910991"
         style="stop-opacity:1;stop-color:#7c9da4" /><stop
         id="stop452"
         offset="1"
         style="stop-opacity:1;stop-color:#7c9da4" /></radialGradient><clipPath
       id="clipPath464"
       clipPathUnits="userSpaceOnUse"><path
         id="path462"
         d="m 5178.64,169.121 c -3.94,0 -7.14,1.391 -9.65,4.117 -2.5,2.782 -3.76,6.864 -3.76,12.231 v 43.613 c 0,5.59 -0.23,10.039 -0.69,13.379 -0.47,3.379 -1.77,6.211 -3.83,8.48 -2.12,2.258 -5.3,3.438 -9.53,3.438 -3.42,0 -6.66,-1.078 -9.73,-3.09 -3.07,-1.969 -5.47,-4.769 -7.21,-8.129 -1.86,-4.371 -2.84,-12.121 -2.84,-23.219 v -34.472 c 0,-5.469 -1.21,-9.508 -3.69,-12.27 -2.5,-2.73 -5.72,-4.078 -9.78,-4.078 -3.93,0 -7.14,1.348 -9.51,4.078 -2.47,2.762 -3.72,6.801 -3.72,12.27 v 41.312 c 0,6.539 -0.21,11.621 -0.64,15.25 -0.46,3.539 -1.68,6.539 -3.62,8.828 -1.96,2.34 -5.09,3.52 -9.31,3.52 -8.5,0 -14.07,-2.91 -16.77,-8.809 -2.67,-5.769 -4.06,-14.14 -4.06,-25.078 v -35.023 c 0,-5.367 -1.22,-9.449 -3.61,-12.231 -2.49,-2.726 -5.68,-4.117 -9.65,-4.117 -3.95,0 -7.17,1.391 -9.67,4.117 -2.52,2.782 -3.76,6.864 -3.76,12.231 v 74.203 c 0,4.879 1.12,8.59 3.35,11.109 2.3,2.559 5.27,3.809 8.9,3.809 3.56,0 6.51,-1.231 8.92,-3.551 2.36,-2.391 3.54,-5.668 3.54,-9.848 v -2.441 c 4.53,5.352 9.35,9.32 14.44,11.801 5.17,2.597 10.82,3.859 17.13,3.859 6.52,0 12.11,-1.301 16.78,-3.898 4.7,-2.602 8.54,-6.551 11.6,-11.762 4.4,5.27 9.09,9.219 14.1,11.801 5,2.57 10.53,3.859 16.62,3.859 7.07,0 13.22,-1.418 18.34,-4.191 5.1,-2.778 8.93,-6.797 11.48,-11.957 2.21,-4.731 3.3,-12.09 3.3,-22.172 v -50.621 c 0,-5.469 -1.22,-9.508 -3.67,-12.27 -2.46,-2.73 -5.75,-4.078 -9.8,-4.078" /></clipPath><radialGradient
       id="radialGradient474"
       spreadMethod="pad"
       gradientTransform="matrix(4000,0,0,-4000,4000,4000)"
       gradientUnits="userSpaceOnUse"
       r="1"
       cy="0"
       cx="0"
       fy="0"
       fx="0"><stop
         id="stop466"
         offset="0"
         style="stop-opacity:1;stop-color:#80a2a7" /><stop
         id="stop468"
         offset="0.601278"
         style="stop-opacity:1;stop-color:#80a2a7" /><stop
         id="stop470"
         offset="0.910991"
         style="stop-opacity:1;stop-color:#7c9da4" /><stop
         id="stop472"
         offset="1"
         style="stop-opacity:1;stop-color:#7c9da4" /></radialGradient><clipPath
       id="clipPath484"
       clipPathUnits="userSpaceOnUse"><path
         id="path482"
         d="m 3925.69,219.82 h -0.03 c -0.46,2.27 -0.83,4.539 -1.13,6.821 0.3,-2.262 0.68,-4.532 1.16,-6.821" /></clipPath><radialGradient
       id="radialGradient494"
       spreadMethod="pad"
       gradientTransform="matrix(4000,0,0,-4000,4000,4000)"
       gradientUnits="userSpaceOnUse"
       r="1"
       cy="0"
       cx="0"
       fy="0"
       fx="0"><stop
         id="stop486"
         offset="0"
         style="stop-opacity:1;stop-color:#80a2a7" /><stop
         id="stop488"
         offset="0.601278"
         style="stop-opacity:1;stop-color:#80a2a7" /><stop
         id="stop490"
         offset="0.910991"
         style="stop-opacity:1;stop-color:#7c9da4" /><stop
         id="stop492"
         offset="1"
         style="stop-opacity:1;stop-color:#7c9da4" /></radialGradient><clipPath
       id="clipPath504"
       clipPathUnits="userSpaceOnUse"><path
         id="path502"
         d="m 3932.64,198.98 c -1.77,3.7 -3.3,7.579 -4.57,11.59 h 0.04 v 0 0 c 1.23,-3.929 2.73,-7.82 4.53,-11.59" /></clipPath><radialGradient
       id="radialGradient514"
       spreadMethod="pad"
       gradientTransform="matrix(4000,0,0,-4000,4000,4000)"
       gradientUnits="userSpaceOnUse"
       r="1"
       cy="0"
       cx="0"
       fy="0"
       fx="0"><stop
         id="stop506"
         offset="0"
         style="stop-opacity:1;stop-color:#80a2a7" /><stop
         id="stop508"
         offset="0.601278"
         style="stop-opacity:1;stop-color:#80a2a7" /><stop
         id="stop510"
         offset="0.910991"
         style="stop-opacity:1;stop-color:#7c9da4" /><stop
         id="stop512"
         offset="1"
         style="stop-opacity:1;stop-color:#7c9da4" /></radialGradient><clipPath
       id="clipPath524"
       clipPathUnits="userSpaceOnUse"><path
         id="path522"
         d="m 3980.46,320.199 -2.3,7.051 c 0,0 13.01,6.359 29.35,8.609 l -1.34,4.633 c -4.77,1.008 -8.36,5.27 -8.36,10.348 0,5.82 4.73,10.531 10.56,10.531 5.83,0 10.58,-4.711 10.58,-10.531 0,-5.078 -3.6,-9.34 -8.38,-10.348 l 1.21,-4.14 c 2.28,0.179 4.48,0.257 6.58,0.257 12.02,0 20.52,-2.609 20.52,-2.609 l -1.21,-7.629 c -4.23,0.719 -7.93,1.109 -12.94,1.109 -4.67,0 -10.41,-0.351 -18.03,-1.148 -7.77,-0.84 -16.35,-2.852 -26.24,-6.133" /></clipPath><radialGradient
       id="radialGradient534"
       spreadMethod="pad"
       gradientTransform="matrix(4000,0,0,-4000,4000,4000)"
       gradientUnits="userSpaceOnUse"
       r="1"
       cy="0"
       cx="0"
       fy="0"
       fx="0"><stop
         id="stop526"
         offset="0"
         style="stop-opacity:1;stop-color:#80a2a7" /><stop
         id="stop528"
         offset="0.601278"
         style="stop-opacity:1;stop-color:#80a2a7" /><stop
         id="stop530"
         offset="0.910991"
         style="stop-opacity:1;stop-color:#7c9da4" /><stop
         id="stop532"
         offset="1"
         style="stop-opacity:1;stop-color:#7c9da4" /></radialGradient><clipPath
       id="clipPath544"
       clipPathUnits="userSpaceOnUse"><path
         id="path542"
         d="m 3918.21,242.66 -10.57,0.43 c 0,0 -1.25,14.801 3.11,26.691 l 0.03,0.039 c -0.12,1.328 -0.49,3.071 -1.6,4.282 -0.95,1.058 -2.35,1.57 -4.26,1.57 -0.04,0 -0.08,0 -0.12,-0.012 -0.09,0 -0.18,0 -0.27,0 -3.67,0 -6.2,1.551 -7.8,3.352 l -1.67,-0.223 c -3.69,0 -6.69,2.992 -6.69,6.703 0,3.668 3,6.68 6.69,6.68 3.69,0 6.69,-3.012 6.69,-6.68 0,-1.582 -0.53,-3.012 -1.43,-4.14 0.9,-0.801 2.27,-1.473 4.27,-1.473 h 0.15 c 0.09,0 0.18,0 0.26,0 3.1,0 5.55,-1.008 7.32,-2.949 l 0.9,-1.192 c 6.06,13.051 13.74,20.102 14.01,20.492 l 4.88,-3.57 3.13,-2.25 -1.13,-1.43 -0.06,-0.07 c -0.27,-0.39 -6.86,-9.461 -12.13,-23.949 -2.73,-7.481 -3.5,-16.91 -3.71,-22.301" /></clipPath><radialGradient
       id="radialGradient554"
       spreadMethod="pad"
       gradientTransform="matrix(4000,0,0,-4000,4000,4000)"
       gradientUnits="userSpaceOnUse"
       r="1"
       cy="0"
       cx="0"
       fy="0"
       fx="0"><stop
         id="stop546"
         offset="0"
         style="stop-opacity:1;stop-color:#80a2a7" /><stop
         id="stop548"
         offset="0.601278"
         style="stop-opacity:1;stop-color:#80a2a7" /><stop
         id="stop550"
         offset="0.910991"
         style="stop-opacity:1;stop-color:#7c9da4" /><stop
         id="stop552"
         offset="1"
         style="stop-opacity:1;stop-color:#7c9da4" /></radialGradient><clipPath
       id="clipPath564"
       clipPathUnits="userSpaceOnUse"><path
         id="path562"
         d="m 4105.89,266 c -3.37,7.238 -7.42,14.512 -11.36,20.148 -5.69,8.153 -11.55,14.692 -17.28,19.911 l 7.58,8.121 c 0,0 9.69,-6.719 17.56,-17.75 1.05,0.25 2.11,0.66 2.96,1.402 1.07,0.977 1.57,2.398 1.54,4.379 -0.05,3.828 1.54,6.437 3.37,8.098 l -0.23,1.64 c 0,3.711 3.01,6.699 6.69,6.699 3.71,0 6.7,-2.988 6.7,-6.699 0,-3.687 -2.99,-6.679 -6.7,-6.679 -1.55,0 -2.98,0.55 -4.12,1.429 -0.82,-0.937 -1.51,-2.34 -1.49,-4.418 0.06,-3.222 -0.93,-5.769 -2.93,-7.57 -1.01,-0.902 -2.16,-1.531 -3.31,-1.941 6.58,-10.348 11.26,-21.911 11.26,-21.911 L 4105.89,266" /></clipPath><radialGradient
       id="radialGradient574"
       spreadMethod="pad"
       gradientTransform="matrix(4000,0,0,-4000,4000,4000)"
       gradientUnits="userSpaceOnUse"
       r="1"
       cy="0"
       cx="0"
       fy="0"
       fx="0"><stop
         id="stop566"
         offset="0"
         style="stop-opacity:1;stop-color:#80a2a7" /><stop
         id="stop568"
         offset="0.601278"
         style="stop-opacity:1;stop-color:#80a2a7" /><stop
         id="stop570"
         offset="0.910991"
         style="stop-opacity:1;stop-color:#7c9da4" /><stop
         id="stop572"
         offset="1"
         style="stop-opacity:1;stop-color:#7c9da4" /></radialGradient><clipPath
       id="clipPath584"
       clipPathUnits="userSpaceOnUse"><path
         id="path582"
         d="m 4007.62,157.66 c -19.78,0 -32.79,4.199 -32.92,4.25 l -0.21,0.078 -0.23,0.024 c -0.14,0.019 -14.81,2.519 -29.21,18.258 -4.14,4.558 -7.78,9.789 -10.81,15.492 l -0.17,0.328 -0.65,1.269 -0.65,1.352 -0.13,0.269 v 0 c -1.8,3.77 -3.3,7.661 -4.53,11.59 v 0 c 5.14,-1.179 13.55,-2.84 24.32,-4.179 9.43,-1.192 21.71,-2.231 35.62,-2.231 10.69,0 22.3,0.61 34.28,2.27 30.53,4.25 53.72,13.34 67.82,20.191 8.48,4.141 14.75,7.93 18.72,10.609 0.51,-7.191 -0.37,-14.011 -1.48,-18.261 -2.09,-8.008 -5.61,-15.707 -10.49,-22.938 -6.32,-9.332 -19.07,-19.801 -32.55,-26.691 -18.19,-7.758 -37.28,-11.68 -56.73,-11.68" /></clipPath><radialGradient
       id="radialGradient594"
       spreadMethod="pad"
       gradientTransform="matrix(4000,0,0,-4000,4000,4000)"
       gradientUnits="userSpaceOnUse"
       r="1"
       cy="0"
       cx="0"
       fy="0"
       fx="0"><stop
         id="stop586"
         offset="0"
         style="stop-opacity:1;stop-color:#80a2a7" /><stop
         id="stop588"
         offset="0.601278"
         style="stop-opacity:1;stop-color:#80a2a7" /><stop
         id="stop590"
         offset="0.910991"
         style="stop-opacity:1;stop-color:#7c9da4" /><stop
         id="stop592"
         offset="1"
         style="stop-opacity:1;stop-color:#7c9da4" /></radialGradient><clipPath
       id="clipPath604"
       clipPathUnits="userSpaceOnUse"><path
         id="path602"
         d="m 3988.21,212.59 c -32.11,0 -57.23,5.89 -62.52,7.23 v 0 c -0.48,2.289 -0.86,4.559 -1.16,6.821 -0.01,0.07 -0.02,0.14 -0.03,0.218 l -0.15,1.27 -0.02,0.172 c -0.38,3.34 -0.57,6.699 -0.57,10.101 v 0.039 c 0,0.149 -0.16,14.649 3.46,24.59 4.83,13.278 10.94,21.93 11.35,22.539 3.42,4.328 6.38,7.09 7.81,8.399 l 0.32,0.312 c 9.6,8.879 21.8,15.957 35.27,20.469 9.61,3.242 17.89,5.191 25.33,5.949 7.41,0.781 12.95,1.16 17.43,1.16 4.8,0 8.19,-0.418 12.43,-1.097 11.1,-1.832 32.72,-9.18 52.77,-37.832 7.01,-10.059 14.66,-26.188 17.43,-36.469 -2.78,-2.031 -9.99,-6.949 -21.2,-12.379 -13.49,-6.543 -35.72,-15.191 -64.99,-19.281 -11.43,-1.59 -22.56,-2.211 -32.96,-2.211 m -9.36,80.34 c -15.54,0 -28.16,-12.621 -28.16,-28.18 0,-15.551 12.62,-28.148 28.16,-28.148 15.57,0 28.17,12.597 28.17,28.148 0,15.559 -12.6,28.18 -28.17,28.18 m 82.42,-0.7 c -9.62,0 -17.42,-7.82 -17.42,-17.421 0,-9.629 7.8,-17.45 17.42,-17.45 9.61,0 17.43,7.821 17.43,17.45 0,9.601 -7.82,17.421 -17.43,17.421" /></clipPath><radialGradient
       id="radialGradient614"
       spreadMethod="pad"
       gradientTransform="matrix(4000,0,0,-4000,4000,4000)"
       gradientUnits="userSpaceOnUse"
       r="1"
       cy="0"
       cx="0"
       fy="0"
       fx="0"><stop
         id="stop606"
         offset="0"
         style="stop-opacity:1;stop-color:#80a2a7" /><stop
         id="stop608"
         offset="0.601278"
         style="stop-opacity:1;stop-color:#80a2a7" /><stop
         id="stop610"
         offset="0.910991"
         style="stop-opacity:1;stop-color:#7c9da4" /><stop
         id="stop612"
         offset="1"
         style="stop-opacity:1;stop-color:#7c9da4" /></radialGradient></defs><g
     transform="matrix(1.3333333,0,0,-1.3333333,0,1066.6667)"
     id="g10"><g
       transform="translate(-861.01703,-203.38985)"
       id="g1632"><path
         id="path36"
         style="fill:#426d78;fill-opacity:1;fill-rule:nonzero;stroke:none;stroke-width:0.1"
         d="m 1263.5304,740.81102 c 4.722,2.593 8.559,3.607 11.554,3.655 -3.598,3.817 -7.178,7.697 -10.253,11.956 -3.334,4.62 -6.326,9.49 -9.247,14.378 -6.219,10.409 -12.026,21.065 -17.728,31.763 -5.799,10.878 -11.458,21.831 -17.039,32.822 24.632,5.619 50.072,7.011 75.225,4.902 24.314,-2.038 48.493,-7.207 71.293,-15.957 l 0.125,0.326 c 0.291,-0.11 0.585,-0.215 0.875,-0.326 l 8.957,23.34 c -22.783,8.744 -46.823,14.201 -71.069,16.809 -25.004,2.688 -50.452,2.381 -75.298,-1.644 -23.029,-3.73 -45.611,-10.65 -66.838,-20.315 -20.367,-9.274 -39.198,-21.252 -56.813,-35.01 -10.281,-8.029 -20.421,-16.433 -29.516,-25.804 l 17.429,-16.918 0.51,-0.494 c 7.25,7.469 15.285,14.205 23.408,20.698 8.498,6.792 17.242,13.29 26.436,19.114 6.592,4.177 13.389,8.031 20.356,11.545 12.51,-20.315 25.135,-40.574 38.318,-60.46 5.746,-8.669 11.466,-17.526 18.06,-25.585 v 0.001 c 4.633,-5.77 9.984,-10.983 15.254,-16.162 4.873,15.124 18.951,23.495 26.001,27.366 4.722,2.593 -7.05,-3.871 0,0" /><path
         id="path38"
         style="fill:#426d78;fill-opacity:1;fill-rule:nonzero;stroke:none;stroke-width:0.1"
         d="m 1336.0504,671.73902 -17.563,-7.742 -10.843,-4.781 -7.556,-3.332 c 8.56,-7.61 17.145,-15.194 25.782,-22.717 -5.42,-11.612 -3.7,-26.812 6.395,-36.155 l 5.138,-4.758 9.599,-8.891 8.699,-8.051 14.082,-13.041 c 3.677,-3.405 9.979,-3.846 14.398,-1.751 1.899,0.899 3.499,2.229 3.951,4.347 0.412,1.939 0.226,3.939 0.32,5.904 0.07,1.479 0.321,2.484 1.801,3.001 1.799,0.629 3.692,0.902 5.463,1.634 2.045,0.848 4.346,2.288 5.067,4.502 0.678,2.083 0.214,4.315 0.401,6.455 0.434,4.959 5.954,3.853 9.329,5.442 1.954,0.921 3.179,2.411 3.587,4.518 0.377,1.945 0.283,3.945 0.337,5.914 0.035,1.288 -0.022,3.046 1.204,3.832 1.269,0.812 3.019,0.703 4.402,1.29 4.624,1.966 6.191,6.66 5.08,11.285 -0.629,2.616 -1.927,5.29 -3.924,7.136 l -9.102,8.428 c 4.406,0.425 3.766,5.758 2.54,8.696 -1.69,4.048 -4.639,7.556 -7.629,10.705 -6.466,6.806 -14.571,12.013 -23.682,14.475 -2.488,0.673 -5.038,1.126 -7.61,1.321 0.063,0.115 0.128,0.235 0.191,0.349 -5.368,0.18 -11.056,-0.627 -16.679,-2.849 0,0 -1.085,0.929 -3.024,2.604 v 0 c -2.815,2.43 -7.437,6.439 -13.16,11.465 -0.909,-3.951 -3.567,-7.724 -6.994,-9.235" /><path
         id="path40"
         style="fill:#a0b422;fill-opacity:1;fill-rule:nonzero;stroke:none;stroke-width:0.1"
         d="m 1139.7814,646.79802 c -0.801,6.525 -0.434,10.91 0.517,13.852 -8.733,-3.419 -17.575,-6.848 -26.808,-8.642 -9.067,-1.762 -18.282,-2.802 -27.462,-3.765 -16.22,-1.7 -32.491,-2.914 -48.762,-3.992 4.344,23.196 12.057,45.74 22.921,66.693 6.498,12.53 14.106,24.478 22.673,35.694 l -19.868,15.174 c -13.989,-18.318 -25.639,-38.417 -34.476,-59.708 -9.291,-22.382 -15.516,-46.056 -18.434,-70.114 -3.112,-25.655 -2.375,-51.719 2.019,-77.179 4.091,-23.708 11.336,-46.855 21.599,-68.618 3.23,-6.849 6.752,-13.566 10.557,-20.114 l 21.616,12.561 c -11.994,20.641 -20.855,43.058 -26.276,66.306 -3.215,13.782 -5.243,27.841 -6.037,41.971 22.966,3.385 45.945,6.859 68.752,11.205 7.577,1.443 15.204,2.9 22.625,5.03 9.47,2.718 18.633,6.726 27.7,10.534 0.242,0.102 0.485,0.204 0.728,0.306 -9.377,6.461 -11.374,14.808 -13.584,32.806 -0.801,6.525 2.21,-17.998 0,0" /><path
         id="path42"
         style="fill:#a0b422;fill-opacity:1;fill-rule:nonzero;stroke:none;stroke-width:0.1"
         d="m 1230.8174,671.96202 0.758,-11.825 0.678,-10.586 c 12.762,5.98 21.289,10.057 21.289,10.057 8.502,-9.587 23.137,-14.046 35.719,-8.497 l 10.827,4.773 7.556,3.332 10.843,4.781 17.563,7.742 c 4.663,2.055 7.589,7.777 7.317,12.742 -0.124,2.265 -0.851,4.137 -2.779,5.377 -1.55,0.996 -3.304,1.595 -4.949,2.405 -1.397,0.689 -2.148,1.341 -2,2.983 0.218,2.421 0.856,4.74 0.582,7.196 -0.263,2.356 -1.124,4.371 -3.215,5.582 -1.594,0.923 -3.42,1.371 -4.99,2.335 -4.031,2.476 -0.504,7.566 -0.939,11.188 -0.517,4.318 -4.761,5.531 -8.158,7.141 -1.112,0.526 -2.601,1.151 -2.838,2.508 -0.244,1.394 0.488,2.873 0.551,4.271 0.198,4.478 -2.72,7.947 -6.89,9.126 -3.028,0.856 -6.632,0.846 -9.546,-0.438 l -15.169,-6.687 c 1.143,3.534 -2.501,6.243 -5.541,6.808 -4.852,0.903 -9.94,-1.255 -14.094,-3.541 -6.684,-3.678 -13.062,-8.059 -18.105,-13.846 -5.666,-6.504 -9.173,-14.589 -9.452,-23.263 0,0 -3.774,-1.842 -10.011,-4.826 2.115,-2.159 3.591,-4.932 3.768,-7.683 l 1.225,-19.155" /><path
         id="path44"
         style="fill:#ef6429;fill-opacity:1;fill-rule:nonzero;stroke:none;stroke-width:0.1"
         d="m 1173.7394,489.81002 -1.051,0.156 c -0.01,-0.453 -0.018,-0.901 -0.029,-1.342 0.33,0.468 0.705,0.872 1.08,1.186" /><path
         id="path46"
         style="fill:#ef6429;fill-opacity:1;fill-rule:nonzero;stroke:none;stroke-width:0.1"
         d="m 1176.6174,571.81002 18.984,-2.822 11.724,-1.741 9.079,-1.349 c -2,24.435 -3.818,43.578 -3.818,43.578 11.929,4.681 21.151,16.887 20.272,30.61 l -0.605,9.465 -0.678,10.586 -0.758,11.825 -1.225,19.155 c -0.338,5.264 -5.038,10.213 -10.066,11.425 -2.222,0.536 -4.012,0.219 -5.768,-1.231 -1.489,-1.23 -2.662,-2.791 -4.143,-4.025 -1.197,-0.995 -2.13,-0.773 -3.436,-0.084 -1.795,0.949 -3.506,2.028 -5.471,2.611 -2.043,0.606 -4.37,0.812 -6.219,-0.417 -1.557,-1.034 -2.645,-2.597 -3.989,-3.867 -1.229,-1.162 -2.664,-1.86 -4.356,-1.299 -1.718,0.57 -3.11,1.878 -4.673,2.75 -1.701,0.95 -3.908,1.614 -5.814,0.896 -1.852,-0.696 -3.32,-2.266 -4.672,-3.649 -1.068,-1.094 -2.294,-2.751 -3.813,-3.235 -1.152,-0.367 -2.255,0.503 -3.164,1.079 -3.349,2.124 -7.78,2.156 -10.828,-0.531 -2.958,-2.608 -4.862,-7.089 -4.607,-11.039 l 0.925,-14.462 c -1.72,0.583 -3.757,0.483 -5.377,-0.342 -3.497,-1.782 -4.423,-6.26 -4.689,-9.828 -0.404,-5.42 0.51,-10.913 1.311,-16.259 0.638,-4.255 1.393,-8.543 2.808,-12.619 1.337,-3.852 3.379,-7.388 6.35,-10.212 4.28,-4.069 9.853,-6.596 15.263,-8.779 0,0 1.702,-16.484 3.491,-38.044 2.481,1.477 5.358,2.239 7.962,1.854" /><path
         id="path48"
         style="fill:#ef6429;fill-opacity:1;fill-rule:nonzero;stroke:none;stroke-width:0.1"
         d="m 1201.1074,474.69702 c -19.115,1.203 -26.486,4.846 -28.685,8.337 -0.471,-7.531 -2.163,-15 -3.829,-22.34 -2.46,-10.841 -5.306,-21.595 -8.254,-32.313 -3.253,-11.823 -6.665,-23.602 -10.158,-35.356 -28.757,17.301 -54.132,40.735 -74.054,69.48 l -0.669,-0.464 -19.879,-13.776 c 11.728,-16.923 25.402,-32.49 40.694,-46.279 14.974,-13.504 31.486,-25.293 49.119,-35.074 17.513,-9.715 36.122,-17.443 55.365,-22.995 19.348,-5.582 39.326,-8.959 59.433,-10.043 22.72,-1.226 45.576,0.48 67.867,5.032 l -5.002,24.494 c -0.32,-0.065 -0.641,-0.123 -0.961,-0.187 l -0.039,0.187 c -25.308,-5.167 -51.363,-6.258 -77.002,-3.096 -14.14,1.744 -28.123,4.746 -41.735,8.953 4.679,22.242 9.243,44.518 13.21,66.9 2.332,13.157 4.923,26.519 5.035,39.923 -8.012,-1.95 -15.7,-1.683 -20.456,-1.383 -19.115,1.203 4.756,-0.3 0,0" /><path
         id="path50"
         style="fill:#49aba3;fill-opacity:1;fill-rule:nonzero;stroke:none;stroke-width:0.1"
         d="m 1273.6704,511.51202 5.261,10.613 5.942,11.987 c -18.614,2.369 -31.998,3.939 -31.998,3.939 -2.078,12.646 -12.075,24.223 -25.678,26.245 l -10.793,1.602 -9.079,1.349 -11.724,1.741 -18.984,2.822 c -5.18,0.767 -10.928,-2.709 -13.218,-7.307 -1.005,-2.018 -1.163,-3.865 -0.147,-5.888 0.887,-1.765 2.199,-3.269 3.122,-5.01 0.709,-1.335 0.393,-2.181 -0.527,-3.298 -1.196,-1.453 -2.519,-2.784 -3.499,-4.405 -1.084,-1.793 -1.996,-4.116 -1.354,-6.213 0.59,-1.929 2.039,-3.436 3.075,-5.125 0.925,-1.506 1.302,-3.113 0.32,-4.693 -0.922,-1.484 -2.413,-2.54 -3.561,-3.837 -1.257,-1.421 -2.373,-3.37 -2.163,-5.338 0.209,-1.951 1.426,-3.734 2.478,-5.33 0.88,-1.333 2.218,-2.852 2.483,-4.479 0.197,-1.206 -0.826,-2.119 -1.589,-2.888 -2.871,-2.894 -3.907,-7.278 -1.803,-10.922 1.952,-3.383 5.886,-6.135 9.766,-6.713 l 2.688,-0.398 1.051,-0.156 c -2.036,-1.702 -2.762,-4.554 -1.271,-6.847 0.445,-0.687 1.025,-1.278 1.658,-1.794 1.978,-1.612 4.452,-2.586 6.862,-3.345 4.183,-1.316 8.56,-2.007 12.908,-2.502 5.257,-0.597 10.586,-0.974 15.879,-0.79 6.753,0.236 13.559,1.443 19.728,4.281 6.006,2.763 11.156,7.083 14.864,12.563 0,0 7.837,-0.855 19.73,-2.293 -0.044,1.862 0.277,3.681 1.045,5.23 l 8.528,17.199" /><path
         id="path52"
         style="fill:#fbc11a;fill-opacity:1;fill-rule:nonzero;stroke:none;stroke-width:0.1"
         d="m 1404.3574,656.26602 c 7.157,-6.859 10.248,-12.093 11.05,-15.743 2.123,3.492 4.334,6.91 6.867,10.118 2.373,3.005 4.892,5.896 7.45,8.743 6.953,7.734 14.245,15.162 21.603,22.508 11.357,11.337 22.946,22.442 34.619,33.454 11.5,-21.209 19.783,-44.13 24.535,-67.783 2.78,-13.829 4.368,-27.903 4.711,-42.006 l 24.992,0.607 c -0.612,25.264 -4.838,50.447 -12.47,74.538 -7.213,22.767 -17.492,44.552 -30.497,64.584 -12.871,19.825 -28.409,37.896 -46.064,53.612 -16.483,14.673 -34.792,27.274 -54.359,37.476 l -11.557,-22.168 c 25.427,-13.257 47.875,-30.621 66.675,-51.129 -14.952,-16.621 -29.816,-33.33 -44.296,-50.366 -10.464,-12.311 -21.277,-24.635 -29.327,-38.711 -0.872,-1.524 -1.727,-3.058 -2.573,-4.595 12.974,-0.981 23.675,-8.381 28.641,-13.139 7.157,-6.859 -4.966,4.758 0,0" /><path
         id="path54"
         style="fill:#fbc11a;fill-opacity:1;fill-rule:nonzero;stroke:none;stroke-width:0.1"
         d="m 1365.0784,487.73402 c 1.758,7.075 4.111,13.901 4.611,21.238 0.615,8.996 -1.568,17.886 -7.169,25.056 0,0 4.809,10.73 11.847,25.799 -1.745,0.489 -3.347,1.298 -4.584,2.444 l -14.082,13.041 -8.699,8.051 -9.599,8.891 c -9.583,-20.287 -16.675,-35.771 -16.675,-35.771 -12.673,1.915 -26.763,-4.034 -32.873,-16.354 l -2.982,-6.017 -5.942,-11.987 -5.261,-10.613 -8.528,-17.199 c -2.23,-4.499 -0.863,-10.688 2.417,-14.334 1.415,-1.572 3.147,-2.706 5.317,-2.526 2.009,0.167 3.898,0.938 5.847,1.393 1.419,0.331 2.384,0.291 3.262,-0.944 1.015,-1.425 1.763,-3.018 2.829,-4.414 1.267,-1.657 3.124,-3.472 5.261,-3.846 2.164,-0.38 4.289,0.651 6.332,1.195 1.837,0.489 3.626,0.456 4.916,-1.108 1.163,-1.411 1.711,-3.236 2.669,-4.778 1.029,-1.658 2.649,-3.263 4.671,-3.514 1.977,-0.247 4.019,0.39 5.901,0.92 1.402,0.395 3.331,1.232 4.806,0.793 1.258,-0.373 1.738,-1.907 2.312,-2.927 2.318,-4.128 7.115,-5.643 11.429,-3.902 3.054,1.233 6.009,3.653 7.488,6.636 l 6.767,13.65 c 0.775,-1.923 3.144,-2.772 5.058,-2.844 2.335,-0.088 4.578,0.87 6.351,2.344 3.458,2.877 5.247,7.377 6.303,11.627 1.791,7.209 -1.795,-7.223 0,0" /><path
         id="path56"
         style="fill:#49aba3;fill-opacity:1;fill-rule:nonzero;stroke:none;stroke-width:0.1"
         d="m 1515.9984,588.48802 v -0.047 l -0.997,0.047 c -1.742,-37.127 -13.416,-74.508 -33.401,-108.025 -21.057,9.34 -42.173,18.589 -63.561,27.151 -7.584,3.037 -15.206,6.041 -22.98,8.564 -8.618,2.797 -17.617,4.339 -26.524,5.894 2.572,-9.474 0.782,-19.265 -1.829,-28.513 -1.84,-6.516 -3.125,-15.005 -9.632,-18.625 4.784,-1.038 9.609,-2.107 14.251,-3.68 3.422,-1.16 6.769,-2.539 10.085,-3.97 9.419,-4.064 18.625,-8.626 27.77,-13.269 12.499,-6.348 24.871,-12.944 37.187,-19.637 -29.91,-31.045 -67.455,-54.499 -107.751,-67 l 7.408,-23.877 c 0.305,0.095 0.606,0.195 0.91,0.291 l 0.09,-0.291 c 21.153,6.562 41.484,15.726 60.453,27.151 18.677,11.249 36.034,24.682 51.636,39.91 16.953,16.548 31.835,35.219 44.114,55.483 12.28,20.264 21.949,42.124 28.45,64.917 5.233,18.35 8.402,37.291 9.297,56.354 l -24.973,1.172" /></g></g></svg>